<svg width="48" height="48" viewBox="0 0 48 48" fill="none" xmlns="http://www.w3.org/2000/svg">
<circle cx="24" cy="24" r="24" fill="#00A76E" fill-opacity="0.1"/>
<path d="M21.7231 38.9241V36.7759H16.9786V37.8938H14.8561C14.2843 37.8938 13.8207 38.3574 13.8207 38.9344V39.9698H22.0064C21.8261 39.6659 21.7231 39.3156 21.7231 38.9344V38.9241Z" fill="#00A76E"/>
<path d="M33.4891 21.1563V17.2103C33.4891 16.6384 33.0255 16.1748 32.4537 16.1748H9.08123C8.50941 16.1748 8.04578 16.6384 8.04578 17.2103V30.7897H21.723V23.2221C21.723 22.0836 22.6503 21.1563 23.7888 21.1563H33.4891ZM12.7543 24.0103C12.9552 24.2112 12.9552 24.5357 12.7543 24.7366C12.6512 24.8397 12.5224 24.886 12.3885 24.886C12.2546 24.886 12.1258 24.8345 12.0227 24.7366L10.2712 22.9851C10.0703 22.7842 10.0703 22.4597 10.2712 22.2587L12.0227 20.5072C12.2237 20.3063 12.5482 20.3063 12.7491 20.5072C12.95 20.7081 12.95 21.0327 12.7491 21.2336L11.3582 22.6245L12.7543 24.0103ZM17.0609 19.5027L13.9546 26.1739C13.867 26.3594 13.6815 26.4727 13.4858 26.4727C13.4137 26.4727 13.3364 26.4572 13.2694 26.4263C13.0118 26.3078 12.8985 25.9987 13.0221 25.7412L16.1337 19.07C16.2521 18.8124 16.5612 18.699 16.8188 18.8227C17.0712 18.936 17.1846 19.2451 17.0609 19.5027V19.5027ZM19.8067 22.9851L18.0552 24.7366C17.9521 24.8397 17.8234 24.886 17.6894 24.886C17.5555 24.886 17.4267 24.8345 17.3237 24.7366C17.1227 24.5357 17.1227 24.2112 17.3237 24.0103L18.7146 22.6194L17.3237 21.2284C17.1227 21.0275 17.1227 20.703 17.3237 20.5021C17.5246 20.3012 17.8491 20.3012 18.05 20.5021L19.8015 22.2536C20.0076 22.4597 20.0076 22.7842 19.8067 22.9851Z" fill="#00A76E"/>
<path d="M21.723 31.8198H8.04578V34.7098C8.04578 35.2816 8.50941 35.7453 9.08123 35.7453H21.723V31.8198ZM20.77 34.0453C20.4815 34.0453 20.2497 33.8135 20.2497 33.525C20.2497 33.2416 20.4815 33.0098 20.77 33.0098C21.0534 33.0098 21.2852 33.2416 21.2852 33.525C21.2852 33.8135 21.0534 34.0453 20.77 34.0453Z" fill="#00A76E"/>
<path d="M35.457 28.1934H27.2455L31.3512 30.017L35.457 28.1934Z" fill="#00A76E"/>
<path d="M27.2455 32.9738H35.457L31.3512 31.145L27.2455 32.9738Z" fill="#00A76E"/>
<path d="M25.3394 28.4663V32.6957L30.0839 30.5836L25.3394 28.4663Z" fill="#00A76E"/>
<path d="M38.9187 22.1865H23.7888C23.2169 22.1865 22.7533 22.6502 22.7533 23.222V25.0868H39.9542V23.222C39.9542 22.6502 39.4906 22.1865 38.9187 22.1865V22.1865ZM24.9633 24.412C24.6748 24.412 24.443 24.1802 24.443 23.8917C24.443 23.6083 24.6748 23.3765 24.9633 23.3765C25.2518 23.3765 25.4836 23.6083 25.4836 23.8917C25.4784 24.1802 25.2466 24.412 24.9633 24.412ZM26.8281 24.412C26.5397 24.412 26.3078 24.1802 26.3078 23.8917C26.3078 23.6083 26.5397 23.3765 26.8281 23.3765C27.1166 23.3765 27.3484 23.6083 27.3484 23.8917C27.3433 24.1802 27.1115 24.412 26.8281 24.412ZM28.693 24.412C28.4045 24.412 28.1727 24.1802 28.1727 23.8917C28.1727 23.6083 28.4045 23.3765 28.693 23.3765C28.9815 23.3765 29.2133 23.6083 29.2133 23.8917C29.2081 24.1802 28.9763 24.412 28.693 24.412Z" fill="#00A76E"/>
<path d="M22.7533 38.9342C22.7533 39.506 23.2169 39.9696 23.7888 39.9696H38.9187C39.4906 39.9696 39.9542 39.506 39.9542 38.9342V26.1172H22.7533V38.9342ZM35.2921 38.4139H32.9172C32.6339 38.4139 32.4021 38.182 32.4021 37.8987C32.4021 37.6154 32.6339 37.3836 32.9172 37.3836H35.2921C35.5754 37.3836 35.8072 37.6154 35.8072 37.8987C35.8072 38.182 35.5806 38.4139 35.2921 38.4139ZM37.8833 36.209H32.9172C32.6339 36.209 32.4021 35.9772 32.4021 35.6939C32.4021 35.4105 32.6339 35.1787 32.9172 35.1787H37.8833C38.1666 35.1787 38.3984 35.4105 38.3984 35.6939C38.3984 35.9772 38.1718 36.209 37.8833 36.209ZM24.3091 27.6781C24.3091 27.3948 24.5409 27.1629 24.8242 27.1629H37.8884C38.1718 27.1629 38.4036 27.3948 38.4036 27.6781V33.489C38.4036 33.7723 38.1718 34.0042 37.8884 34.0042H24.8242C24.5409 34.0042 24.3091 33.7723 24.3091 33.489V27.6781ZM24.8242 35.1787H29.7903C30.0736 35.1787 30.3054 35.4105 30.3054 35.6939C30.3054 35.9772 30.0736 36.209 29.7903 36.209H24.8242C24.5409 36.209 24.3091 35.9772 24.3091 35.6939C24.3091 35.4105 24.5357 35.1787 24.8242 35.1787ZM24.8242 37.3836H27.1991C27.4824 37.3836 27.7142 37.6154 27.7142 37.8987C27.7142 38.182 27.4824 38.4139 27.1991 38.4139H24.8242C24.5409 38.4139 24.3091 38.182 24.3091 37.8987C24.3091 37.6154 24.5357 37.3836 24.8242 37.3836Z" fill="#00A76E"/>
<path d="M37.3682 32.6957V28.4663L32.6185 30.5836L37.3682 32.6957Z" fill="#00A76E"/>
<path d="M32.4021 12.1978C34.0609 12.1978 35.4054 13.5424 35.4054 15.2012C35.4054 16.0357 35.0654 16.7878 34.5194 17.3339V20.3372C34.7976 20.2239 35.0654 20.0848 35.3179 19.9303L36.5954 20.703C36.7603 20.8009 36.9715 20.7751 37.1054 20.6412L37.837 19.9097C37.9709 19.7757 37.9967 19.5645 37.8988 19.3997L37.126 18.1221C37.4351 17.6224 37.667 17.0712 37.806 16.4839L39.2536 16.1285C39.4391 16.0821 39.5679 15.9172 39.5679 15.7266V14.6912C39.5679 14.5006 39.4391 14.3306 39.2536 14.2894L37.806 13.9339C37.667 13.3466 37.4351 12.7954 37.126 12.2957L37.8988 11.0182C37.9967 10.8533 37.9709 10.6421 37.837 10.5082L37.1054 9.77664C36.9715 9.6427 36.7603 9.61694 36.5954 9.71482L35.3179 10.4875C34.8182 10.1682 34.2721 9.93633 33.6848 9.79724L33.3242 8.34452C33.2779 8.15906 33.113 8.03027 32.9224 8.03027H31.8818C31.6912 8.03027 31.5212 8.15906 31.48 8.34452L31.1245 9.79209C30.5373 9.93118 29.9861 10.163 29.4864 10.4721L28.2088 9.69936C28.0439 9.60149 27.8327 9.62724 27.6988 9.76118L26.9673 10.4927C26.8333 10.6266 26.8076 10.8378 26.9054 11.0027L27.6782 12.2803C27.3691 12.78 27.1373 13.3312 26.9982 13.9185L25.5454 14.2791C25.36 14.3254 25.2312 14.4903 25.2312 14.6809V15.1445H29.4039C29.4348 13.5115 30.7639 12.1978 32.4021 12.1978V12.1978Z" fill="#00A76E"/>
</svg>
