<svg width="48" height="48" viewBox="0 0 48 48" fill="none" xmlns="http://www.w3.org/2000/svg">
<circle cx="24" cy="24" r="24" fill="#F29900" fill-opacity="0.1"/>
<path d="M41.3966 20.4417C41.3939 18.0681 39.4706 16.1448 37.097 16.1421H25.4268C23.0532 16.1448 21.1299 18.0681 21.1272 20.4417V27.8124C21.1299 30.1859 23.0532 32.1092 25.4268 32.1119H29.1121C29.275 32.1119 29.4312 32.1767 29.5464 32.2919L35.2544 37.9998V32.7262C35.2544 32.3869 35.5294 32.1119 35.8686 32.1119H37.097C39.4706 32.1092 41.3939 30.1859 41.3966 27.8124V20.4417ZM38.3255 28.4266H24.1983C23.8591 28.4266 23.5841 28.1516 23.5841 27.8124C23.5841 27.4732 23.8591 27.1981 24.1983 27.1981H38.3255C38.6647 27.1981 38.9397 27.4732 38.9397 27.8124C38.9397 28.1516 38.6647 28.4266 38.3255 28.4266ZM38.3255 24.7412H24.1983C23.8591 24.7412 23.5841 24.4662 23.5841 24.127C23.5841 23.7878 23.8591 23.5128 24.1983 23.5128H38.3255C38.6647 23.5128 38.9397 23.7878 38.9397 24.127C38.9397 24.4662 38.6647 24.7412 38.3255 24.7412ZM38.3255 21.0559H24.1983C23.8591 21.0559 23.5841 20.7809 23.5841 20.4417C23.5841 20.1025 23.8591 19.8274 24.1983 19.8274H38.3255C38.6647 19.8274 38.9397 20.1025 38.9397 20.4417C38.9397 20.7809 38.6647 21.0559 38.3255 21.0559Z" fill="#F29900"/>
<path d="M17.6218 26.1498C17.7369 26.0346 17.8932 25.9698 18.056 25.9698H19.8987V20.4418C19.9023 17.3902 22.3751 14.9174 25.4267 14.9138H27.2694V14.2996C27.2667 11.926 25.3434 10.0027 22.9698 10H11.2996C8.92605 10.0027 7.0027 11.926 7 14.2996V21.6703C7.0027 24.0438 8.92605 25.9671 11.2996 25.9698H12.528C12.8672 25.9698 13.1422 26.2449 13.1422 26.5841V30.6293L17.6218 26.1498ZM9.4569 13.6853H22.3556C22.6948 13.6853 22.9698 13.9604 22.9698 14.2996C22.9698 14.6388 22.6948 14.9138 22.3556 14.9138H9.4569C9.11769 14.9138 8.84267 14.6388 8.84267 14.2996C8.84267 13.9604 9.11769 13.6853 9.4569 13.6853ZM9.4569 17.3707H18.6703C19.0095 17.3707 19.2845 17.6457 19.2845 17.9849C19.2845 18.3241 19.0095 18.5991 18.6703 18.5991H9.4569C9.11769 18.5991 8.84267 18.3241 8.84267 17.9849C8.84267 17.6457 9.11769 17.3707 9.4569 17.3707ZM9.4569 22.2845C9.11769 22.2845 8.84267 22.0095 8.84267 21.6703C8.84267 21.3311 9.11769 21.056 9.4569 21.056H18.056C18.3952 21.056 18.6703 21.3311 18.6703 21.6703C18.6703 22.0095 18.3952 22.2845 18.056 22.2845H9.4569Z" fill="#F29900"/>
</svg>
