<svg width="48" height="48" viewBox="0 0 48 48" fill="none" xmlns="http://www.w3.org/2000/svg">
<circle cx="24" cy="24" r="24" fill="#9128FB" fill-opacity="0.1"/>
<path d="M29.8666 11.7334H31.9999V12.8001H29.8666V11.7334Z" fill="#9128FB"/>
<path d="M16 22.4001H26.6667V11.7334H16V22.4001ZM25.6 20.2667C25.6 20.5496 25.4876 20.8209 25.2876 21.021C25.0875 21.221 24.8162 21.3334 24.5333 21.3334H22.4C22.1171 21.3334 21.8458 21.221 21.6458 21.021C21.4457 20.8209 21.3333 20.5496 21.3333 20.2667V19.2001C21.3333 18.9172 21.4457 18.6459 21.6458 18.4458C21.8458 18.2458 22.1171 18.1334 22.4 18.1334H24.5333C24.8162 18.1334 25.0875 18.2458 25.2876 18.4458C25.4876 18.6459 25.6 18.9172 25.6 19.2001V20.2667ZM17.0667 13.8667C17.0667 13.5838 17.179 13.3125 17.3791 13.1125C17.5791 12.9124 17.8504 12.8001 18.1333 12.8001H24.5333C24.8162 12.8001 25.0875 12.9124 25.2876 13.1125C25.4876 13.3125 25.6 13.5838 25.6 13.8667V16.0001C25.6 16.283 25.4876 16.5543 25.2876 16.7543C25.0875 16.9544 24.8162 17.0667 24.5333 17.0667H18.1333C17.8504 17.0667 17.5791 16.9544 17.3791 16.7543C17.179 16.5543 17.0667 16.283 17.0667 16.0001V13.8667ZM17.0667 19.2001C17.0667 18.9172 17.179 18.6459 17.3791 18.4458C17.5791 18.2458 17.8504 18.1334 18.1333 18.1334H19.2C19.4829 18.1334 19.7542 18.2458 19.9542 18.4458C20.1543 18.6459 20.2667 18.9172 20.2667 19.2001V20.2667C20.2667 20.5496 20.1543 20.8209 19.9542 21.021C19.7542 21.221 19.4829 21.3334 19.2 21.3334H18.1333C17.8504 21.3334 17.5791 21.221 17.3791 21.021C17.179 20.8209 17.0667 20.5496 17.0667 20.2667V19.2001Z" fill="#9128FB"/>
<path d="M16 10.6669H26.6667V9.60023C26.6667 9.45878 26.6105 9.32312 26.5105 9.2231C26.4104 9.12308 26.2748 9.06689 26.1333 9.06689H16.5333C16.3919 9.06689 16.2562 9.12308 16.1562 9.2231C16.0562 9.32312 16 9.45878 16 9.60023V10.6669Z" fill="#9128FB"/>
<path d="M27.7333 11.2002H28.7999V12.2669H27.7333V11.2002Z" fill="#9128FB"/>
<path d="M16 24.5335C16 24.6749 16.0562 24.8106 16.1562 24.9106C16.2562 25.0106 16.3919 25.0668 16.5333 25.0668H19.6539C19.5307 24.8181 19.4667 24.5443 19.4667 24.2668C19.4667 23.9893 19.5307 23.7155 19.6539 23.4668H16V24.5335Z" fill="#9128FB"/>
<path d="M21.3333 25.0668C21.7752 25.0668 22.1333 24.7086 22.1333 24.2668C22.1333 23.825 21.7752 23.4668 21.3333 23.4668C20.8915 23.4668 20.5333 23.825 20.5333 24.2668C20.5333 24.7086 20.8915 25.0668 21.3333 25.0668Z" fill="#9128FB"/>
<path d="M29.8666 13.8667H31.9999V20.2667H29.8666V13.8667Z" fill="#9128FB"/>
<path d="M18.1333 13.8667H24.5338V16H18.1333V13.8667Z" fill="#9128FB"/>
<path d="M31.6938 21.3335H30.1759L30.9386 22.9442L31.6938 21.3335Z" fill="#9128FB"/>
<path d="M14.9333 24.5335V13.3335H12.7999V27.2002H35.1999V13.3335H33.0666V20.8002C33.066 20.8755 33.0495 20.9498 33.0181 21.0183V21.0284L31.8933 23.4002C31.8062 23.5793 31.6707 23.7304 31.5022 23.8365C31.3336 23.9426 31.1388 23.9994 30.9396 24.0004C30.7405 24.0015 30.545 23.9468 30.3754 23.8425C30.2057 23.7382 30.0686 23.5885 29.9797 23.4103L28.8533 21.0284C28.8533 21.0252 28.8533 21.0215 28.8533 21.0178C28.8202 20.9499 28.802 20.8757 28.7999 20.8002V13.3335H27.7333V24.5335C27.7333 24.9578 27.5647 25.3648 27.2646 25.6649C26.9646 25.9649 26.5576 26.1335 26.1333 26.1335H16.5333C16.1089 26.1335 15.7019 25.9649 15.4019 25.6649C15.1018 25.3648 14.9333 24.9578 14.9333 24.5335V24.5335Z" fill="#9128FB"/>
<path d="M22.3999 19.2002H24.5338V20.2669H22.3999V19.2002Z" fill="#9128FB"/>
<path d="M18.1333 19.2002H19.2005V20.2669H18.1333V19.2002Z" fill="#9128FB"/>
<path d="M26.1334 25.0668C26.2748 25.0668 26.4105 25.0106 26.5105 24.9106C26.6105 24.8106 26.6667 24.6749 26.6667 24.5335V23.4668H23.0128C23.1359 23.7155 23.2 23.9893 23.2 24.2668C23.2 24.5443 23.1359 24.8181 23.0128 25.0668H26.1334Z" fill="#9128FB"/>
<path d="M31.9999 9.60023C31.9999 9.45878 31.9437 9.32312 31.8437 9.2231C31.7437 9.12308 31.608 9.06689 31.4666 9.06689H30.3999C30.2585 9.06689 30.1228 9.12308 30.0228 9.2231C29.9228 9.32312 29.8666 9.45878 29.8666 9.60023V10.6669H31.9999V9.60023Z" fill="#9128FB"/>
<path d="M19.7333 34.667H28.2666V36.267H19.7333V34.667Z" fill="#9128FB"/>
<path d="M36.2666 11.2002H33.0666V12.2669H35.2C35.4829 12.2669 35.7542 12.3792 35.9542 12.5793C36.1542 12.7793 36.2666 13.0506 36.2666 13.3335V27.2002C36.2666 27.4831 36.1542 27.7544 35.9542 27.9544C35.7542 28.1545 35.4829 28.2669 35.2 28.2669H12.8C12.5171 28.2669 12.2458 28.1545 12.0457 27.9544C11.8457 27.7544 11.7333 27.4831 11.7333 27.2002V13.3335C11.7333 13.0506 11.8457 12.7793 12.0457 12.5793C12.2458 12.3792 12.5171 12.2669 12.8 12.2669H14.9333V11.2002H11.7333C11.4504 11.2002 11.1791 11.3126 10.979 11.5126C10.779 11.7127 10.6666 11.984 10.6666 12.2669V29.3335H37.3333V12.2669C37.3333 11.984 37.2209 11.7127 37.0209 11.5126C36.8208 11.3126 36.5495 11.2002 36.2666 11.2002V11.2002Z" fill="#9128FB"/>
<path d="M16.5333 37.3335C16.3919 37.3335 16.2562 37.3897 16.1562 37.4897C16.0562 37.5897 16 37.7254 16 37.8668V38.9335H32V37.8668C32 37.7254 31.9438 37.5897 31.8438 37.4897C31.7438 37.3897 31.6081 37.3335 31.4667 37.3335H16.5333Z" fill="#9128FB"/>
<path d="M10.6666 32.5337C10.6666 32.8166 10.779 33.0879 10.979 33.288C11.1791 33.488 11.4504 33.6004 11.7333 33.6004H36.2666C36.5495 33.6004 36.8208 33.488 37.0209 33.288C37.2209 33.0879 37.3333 32.8166 37.3333 32.5337V30.4004H10.6666V32.5337ZM23.4666 31.4671H24.5333C24.6747 31.4671 24.8104 31.5232 24.9104 31.6233C25.0104 31.7233 25.0666 31.8589 25.0666 32.0004C25.0666 32.1418 25.0104 32.2775 24.9104 32.3775C24.8104 32.4775 24.6747 32.5337 24.5333 32.5337H23.4666C23.3252 32.5337 23.1895 32.4775 23.0895 32.3775C22.9895 32.2775 22.9333 32.1418 22.9333 32.0004C22.9333 31.8589 22.9895 31.7233 23.0895 31.6233C23.1895 31.5232 23.3252 31.4671 23.4666 31.4671Z" fill="#9128FB"/>
</svg>
