<svg width="48" height="48" viewBox="0 0 48 48" fill="none" xmlns="http://www.w3.org/2000/svg">
<circle cx="24" cy="24" r="24" fill="#FF74D4" fill-opacity="0.1"/>
<path d="M35 17.0625C34.881 17.0625 34.7623 17.0668 34.6441 17.0752C34.2879 15.9391 33.6183 14.9142 32.7052 14.1258C31.4777 13.066 29.8883 12.5068 28.2623 12.5669C26.6687 9.7725 23.6894 8 20.5 8C16.4936 8 12.9484 10.7536 11.8842 14.6164C9.57837 15.6414 8.0625 17.944 8.0625 20.5C8.0625 22.9921 9.48594 25.1579 11.5625 26.2272V23.875C11.5625 22.3242 12.8242 21.0625 14.375 21.0625H33.625C35.1759 21.0625 36.4375 22.3242 36.4375 23.875V26.7231C38.461 26.106 39.9375 24.2227 39.9375 22C39.9375 19.2774 37.7225 17.0625 35 17.0625V17.0625Z" fill="#FF74D4"/>
<path d="M33.625 22.9375H14.375C13.8572 22.9375 13.4375 23.3573 13.4375 23.875V30.4965H34.5625V23.875C34.5625 23.3573 34.1427 22.9375 33.625 22.9375ZM21.4759 27.75H16.5C15.9822 27.75 15.5625 27.3303 15.5625 26.8125C15.5625 26.2948 15.9822 25.875 16.5 25.875H21.4759C21.9936 25.875 22.4134 26.2948 22.4134 26.8125C22.4134 27.3303 21.9936 27.75 21.4759 27.75ZM27.5 27.741C26.9822 27.741 26.5625 27.3212 26.5625 26.8035C26.5625 26.2857 26.9822 25.866 27.5 25.866C28.0177 25.866 28.4375 26.2857 28.4375 26.8035C28.4375 27.3212 28.0177 27.741 27.5 27.741ZM31.5 27.741C30.9822 27.741 30.5625 27.3212 30.5625 26.8035C30.5625 26.2857 30.9822 25.866 31.5 25.866C32.0177 25.866 32.4375 26.2857 32.4375 26.8035C32.4375 27.3212 32.0177 27.741 31.5 27.741Z" fill="#FF74D4"/>
<path d="M13.4375 39.0626C13.4375 39.5803 13.8572 40.0001 14.375 40.0001H33.625C34.1427 40.0001 34.5625 39.5803 34.5625 39.0626V32.3716H13.4375V39.0626ZM31.5 35.0001C32.0177 35.0001 32.4375 35.4198 32.4375 35.9376C32.4375 36.4553 32.0177 36.8751 31.5 36.8751C30.9822 36.8751 30.5625 36.4553 30.5625 35.9376C30.5625 35.4198 30.9822 35.0001 31.5 35.0001ZM27.5 35.0001C28.0177 35.0001 28.4375 35.4198 28.4375 35.9376C28.4375 36.4553 28.0177 36.8751 27.5 36.8751C26.9822 36.8751 26.5625 36.4553 26.5625 35.9376C26.5625 35.4198 26.9822 35.0001 27.5 35.0001ZM16.5 35.0001H21.4759C21.9936 35.0001 22.4134 35.4198 22.4134 35.9376C22.4134 36.4553 21.9936 36.8751 21.4759 36.8751H16.5C15.9822 36.8751 15.5625 36.4553 15.5625 35.9376C15.5625 35.4198 15.9822 35.0001 16.5 35.0001Z" fill="#FF74D4"/>
</svg>
