<svg width="122" height="40" viewBox="0 0 122 40" fill="none" xmlns="http://www.w3.org/2000/svg">
<g clip-path="url(#clip0_907_1886)">
<path d="M51.9985 17.5427C51.401 18.3494 50.6143 18.9969 49.7077 19.4281C48.8011 19.8593 47.8024 20.0611 46.7995 20.0156C45.8664 20.0597 44.9358 19.8866 44.0809 19.5101C43.2261 19.1335 42.4702 18.5638 41.8729 17.8456C40.8537 16.6035 40.3157 15.036 40.3572 13.4298C40.338 12.6052 40.4815 11.7849 40.7795 11.0158C41.0774 10.2467 41.524 9.54386 42.0938 8.94745C42.6635 8.35105 43.3452 7.87277 44.0999 7.53996C44.8546 7.20715 45.6675 7.02634 46.4921 7.00785C46.587 7.00785 46.6831 7.00785 46.778 7.00785C47.7976 6.9554 48.8135 7.16639 49.7278 7.6205C50.6422 8.07461 51.4242 8.75654 51.9985 9.60059L51.0627 10.3544C50.5843 9.67353 49.9444 9.12202 49.2003 8.74939C48.4562 8.37677 47.6313 8.19467 46.7995 8.21945C45.8868 8.21531 44.9895 8.45446 44.2 8.91228C43.3953 9.35704 42.7324 10.0199 42.2876 10.8246C41.831 11.655 41.5974 12.5896 41.6095 13.5372C41.5866 14.209 41.6962 14.8788 41.9321 15.5083C42.168 16.1377 42.5256 16.7146 42.9844 17.2059C43.4433 17.6972 43.9944 18.0932 44.6063 18.3715C45.2183 18.6498 45.879 18.8048 46.5508 18.8277C46.6571 18.8277 46.7633 18.8277 46.8696 18.8277C47.6753 18.835 48.4718 18.6562 49.1971 18.3053C49.9224 17.9544 50.557 17.4409 51.0514 16.8046L51.9985 17.5427Z" fill="url(#paint0_linear_907_1886)"/>
<path d="M62.9497 19.7026H61.8194V18.1395C61.4172 18.7027 60.8859 19.1615 60.2701 19.4775C59.6542 19.7935 58.9717 19.9574 58.2796 19.9557C57.6711 19.9635 57.0682 19.839 56.5126 19.5907C55.957 19.3425 55.462 18.9765 55.0618 18.5181C54.21 17.5884 53.7529 16.3641 53.7869 15.1037C53.7637 13.8438 54.238 12.6255 55.107 11.713C55.5128 11.2631 56.01 10.905 56.5653 10.6628C57.1206 10.4205 57.7212 10.2996 58.327 10.3081C59.0259 10.2992 59.7152 10.4715 60.3276 10.8082C60.9401 11.145 61.4548 11.6346 61.8217 12.2295V10.5511H62.9519L62.9497 19.7026ZM61.8974 15.1455C61.9173 14.1631 61.5522 13.2119 60.8802 12.4951C60.5086 12.098 60.0469 11.7961 59.5342 11.6149C59.0214 11.4337 58.4726 11.3785 57.934 11.454C57.3954 11.5295 56.8828 11.7334 56.4396 12.0486C55.9964 12.3637 55.6355 12.7809 55.3873 13.2648C55.0755 13.832 54.912 14.4688 54.912 15.1161C54.912 15.7634 55.0755 16.4002 55.3873 16.9674C55.6827 17.5312 56.1247 18.0048 56.6667 18.3384C57.1803 18.6662 57.7765 18.8414 58.3858 18.8436C59.0075 18.8364 59.6158 18.6619 60.1467 18.3384C60.6866 18.0261 61.1283 17.5688 61.4216 17.0183C61.7303 16.448 61.8919 15.8098 61.8918 15.1613L61.8974 15.1455Z" fill="url(#paint1_linear_907_1886)"/>
<path d="M74.2749 19.7026H73.1526V18.1395C72.7497 18.7024 72.2182 19.1608 71.6022 19.4765C70.9863 19.7923 70.3037 19.9562 69.6116 19.9546C69.0033 19.9629 68.4005 19.8387 67.845 19.5907C67.2896 19.3426 66.7948 18.9766 66.395 18.5181C65.5411 17.5893 65.0819 16.3649 65.1144 15.1037C65.0907 13.8437 65.5651 12.6253 66.4345 11.713C66.8397 11.2629 67.3364 10.9046 67.8914 10.6621C68.4463 10.4196 69.0467 10.2986 69.6523 10.307C70.3526 10.2967 71.0436 10.4684 71.6578 10.8052C72.2719 11.142 72.7881 11.6324 73.156 12.2284V7.0079H74.2783L74.2749 19.7026ZM73.2226 15.1455C73.2422 14.1733 72.8864 13.231 72.2292 12.5144C71.9157 12.1679 71.5315 11.8928 71.1025 11.7077C70.6735 11.5227 70.2098 11.432 69.7427 11.4418C69.1119 11.4172 68.4878 11.5786 67.948 11.9059C67.4082 12.2333 66.9766 12.7121 66.7069 13.2829C66.3951 13.8501 66.2315 14.4869 66.2315 15.1342C66.2315 15.7815 66.3951 16.4183 66.7069 16.9855C67.0027 17.5494 67.4451 18.023 67.9874 18.3565C68.5011 18.6851 69.0978 18.8608 69.7076 18.8628C70.3291 18.8554 70.937 18.6805 71.4674 18.3565C72.0078 18.0448 72.4496 17.5873 72.7423 17.0364C73.0637 16.4644 73.2359 15.8208 73.243 15.1647L73.2226 15.1455Z" fill="url(#paint2_linear_907_1886)"/>
<path d="M85.4896 15.2099H77.5882C77.5779 16.1473 77.9044 17.0572 78.5082 17.7743C78.8005 18.1209 79.1668 18.3976 79.58 18.5842C79.9933 18.7707 80.443 18.8624 80.8963 18.8526C81.7757 18.8742 82.6293 18.5551 83.2788 17.962C83.662 17.5769 83.9858 17.1369 84.2395 16.6565L85.1957 17.1629C84.7148 18.2625 83.8318 19.1367 82.7273 19.6064C82.1749 19.8228 81.5856 19.9292 80.9924 19.9195C80.3806 19.9368 79.772 19.824 79.207 19.5887C78.642 19.3533 78.1334 19.0007 77.7148 18.5542C77.2819 18.0957 76.9439 17.5563 76.7201 16.9669C76.4963 16.3775 76.3911 15.7496 76.4105 15.1194C76.3953 13.9982 76.7531 12.9037 77.4277 12.0079C77.8222 11.4557 78.3462 11.0087 78.9537 10.7062C79.5612 10.4038 80.2337 10.255 80.9122 10.273C81.6147 10.2525 82.3114 10.4056 82.9406 10.7189C83.5697 11.0322 84.1118 11.4959 84.5187 12.069C85.1749 12.9827 85.5157 14.0852 85.4896 15.2099V15.2099ZM84.2463 14.1927C84.1519 13.6804 83.9403 13.1969 83.6279 12.7801C83.3156 12.3632 82.911 12.0243 82.4459 11.7898C81.9726 11.5619 81.4532 11.4459 80.928 11.4507C80.1021 11.4384 79.3043 11.7504 78.706 12.3199C78.2034 12.8431 77.8536 13.4939 77.6944 14.2017L84.2463 14.1927Z" fill="url(#paint3_linear_907_1886)"/>
<path d="M96.3601 19.7026H95.2378V18.1395C94.835 18.7025 94.3035 19.1611 93.6876 19.477C93.0716 19.793 92.3891 19.9571 91.6968 19.9558C91.0891 19.9639 90.4869 19.8396 89.9322 19.5913C89.3775 19.343 88.8835 18.9768 88.4847 18.5181C87.6299 17.5897 87.1691 16.3654 87.1997 15.1037C87.1762 13.8438 87.6506 12.6254 88.5198 11.713C88.926 11.2629 89.4235 10.9046 89.9791 10.6619C90.5348 10.4193 91.1358 10.2979 91.742 10.3059C92.441 10.2973 93.1303 10.4698 93.7428 10.8065C94.3554 11.1432 94.8704 11.6326 95.2378 12.2273V10.5512H96.3601V19.7026ZM95.309 15.1455C95.3348 14.1678 94.9812 13.218 94.3223 12.4952C93.9499 12.0986 93.4877 11.7972 92.9746 11.6163C92.4615 11.4355 91.9125 11.3804 91.3737 11.4559C90.8349 11.5313 90.3221 11.7349 89.8784 12.0497C89.4347 12.3645 89.073 12.7812 88.8238 13.2648C88.512 13.8321 88.3485 14.4689 88.3485 15.1161C88.3485 15.7634 88.512 16.4002 88.8238 16.9675C89.1198 17.5308 89.5617 18.0042 90.1032 18.3384C90.6194 18.6662 91.2177 18.8413 91.8291 18.8436C92.4491 18.8375 93.0559 18.6629 93.5843 18.3384C94.1266 18.0276 94.57 17.57 94.8637 17.0183C95.1636 16.4457 95.3166 15.8077 95.309 15.1614V15.1455Z" fill="url(#paint4_linear_907_1886)"/>
<path d="M106.458 15.0324C106.485 15.8617 106.389 16.6904 106.174 17.4918C105.951 18.2751 105.449 18.9498 104.763 19.3883C104.115 19.7752 103.369 19.9667 102.615 19.9398C100.931 19.9398 99.7896 19.247 99.1906 17.8715C98.8555 16.9345 98.7095 15.9403 98.7611 14.9465V10.5511H99.9094V14.8256C99.8777 15.5494 99.932 16.2744 100.071 16.9854C100.218 17.5398 100.561 18.0219 101.037 18.3417C101.506 18.6309 102.047 18.7841 102.598 18.7841C103.149 18.7841 103.689 18.6309 104.158 18.3417C104.622 18.0368 104.964 17.5783 105.124 17.0465C105.271 16.3093 105.328 15.5572 105.294 14.8064V10.5567H106.458V15.0324Z" fill="url(#paint5_linear_907_1886)"/>
<path d="M50.2281 31.3212C50.2304 32.0486 50.0326 32.7626 49.6562 33.385C49.2909 34.0106 48.7486 34.5139 48.0976 34.8317C47.2827 35.1877 46.3965 35.3506 45.5083 35.3075H41.6836V21.6499H43.831C44.7481 21.6193 45.6655 21.7009 46.5628 21.8929C47.3106 22.0749 47.9826 22.4868 48.4842 23.0706C48.7549 23.3936 48.9594 23.7669 49.0859 24.1689C49.2123 24.571 49.2583 24.9941 49.2211 25.414C49.1839 25.8338 49.0644 26.2423 48.8693 26.6159C48.6742 26.9895 48.4074 27.3211 48.0841 27.5915C48.0031 27.6595 47.9186 27.7233 47.8309 27.7825C49.429 28.5285 50.2281 29.7129 50.2281 31.3212ZM46.686 25.5141C46.686 24.5836 46.1009 24.1183 44.9307 24.1183H44.2842V26.997H44.8494C46.0847 26.997 46.7063 26.5008 46.7063 25.5141H46.686ZM47.6421 31.2353C47.6421 29.9672 46.6943 29.3313 44.7985 29.3275H44.2842V32.8391H44.9115C45.5228 32.8685 46.1346 32.7921 46.7199 32.6131C47.0084 32.5221 47.2582 32.3374 47.4296 32.0881C47.601 31.8389 47.6842 31.5395 47.6659 31.2376L47.6421 31.2353Z" fill="url(#paint6_linear_907_1886)"/>
<path d="M62.5358 30.2487C62.5382 31.1857 62.2938 32.1068 61.8272 32.9194C61.3748 33.7346 60.706 34.4089 59.8945 34.8679C59.0694 35.3337 58.1362 35.5743 57.1887 35.5652C56.4977 35.58 55.811 35.4529 55.1711 35.1919C54.5311 34.9308 53.9515 34.5413 53.468 34.0474C52.9761 33.5408 52.5887 32.9423 52.3281 32.286C52.0675 31.6297 51.9388 30.9285 51.9493 30.2224C51.9598 29.5164 52.1093 28.8193 52.3893 28.171C52.6693 27.5228 53.0742 26.936 53.581 26.4443C53.615 26.4104 53.6511 26.3765 53.6862 26.3437C54.6344 25.4534 55.8892 24.9625 57.1899 24.9728C58.1317 24.971 59.0576 25.2149 59.8764 25.6803C60.6943 26.136 61.3708 26.8082 61.8317 27.6232C62.2933 28.4212 62.5362 29.3268 62.5358 30.2487V30.2487ZM59.9657 30.2487C59.9908 29.483 59.721 28.7369 59.2118 28.1645C58.9569 27.8853 58.6433 27.666 58.2934 27.5225C57.9436 27.3791 57.5663 27.315 57.1887 27.335C56.8136 27.3239 56.4406 27.3946 56.0955 27.5422C55.7505 27.6897 55.4417 27.9106 55.1905 28.1894C54.693 28.7685 54.4377 29.5168 54.4773 30.2792C54.4491 31.0417 54.7113 31.7865 55.2108 32.3633C55.4617 32.6495 55.7739 32.8755 56.1242 33.0244C56.4744 33.1733 56.8538 33.2413 57.2339 33.2234C57.6139 33.2392 57.9925 33.1702 58.3425 33.0215C58.6924 32.8727 59.0048 32.6479 59.257 32.3633C59.7486 31.7834 60.0019 31.0386 59.9657 30.2792V30.2487Z" fill="url(#paint7_linear_907_1886)"/>
<path d="M73.4734 29.4846C73.4734 31.25 73.331 32.4549 73.0529 33.107C72.3522 34.7458 71.0035 35.5652 69.0067 35.5652C66.845 35.5652 65.4672 34.6279 64.8735 32.7533C64.6268 31.6566 64.5268 30.5319 64.5763 29.4089V25.2214H67.1701V30.0814C67.1577 30.5883 67.1849 31.0955 67.2515 31.5982C67.2833 31.8512 67.365 32.0954 67.4916 32.3167C67.6183 32.538 67.7875 32.7321 67.9895 32.8877C68.2988 33.0989 68.6676 33.2054 69.0418 33.1918C69.4196 33.2174 69.7951 33.1146 70.1071 32.9C70.4192 32.6854 70.6496 32.3716 70.7608 32.0096C70.8989 31.3974 70.9517 30.7691 70.9179 30.1424V25.2214H73.4463L73.4734 29.4846Z" fill="url(#paint8_linear_907_1886)"/>
<path d="M80.3458 27.396H78.8279V35.3076H76.2985V27.396H75.019V25.2215H76.3199V21.4974H78.8482V25.2215H80.3673L80.3458 27.396Z" fill="url(#paint9_linear_907_1886)"/>
<path d="M84.3227 22.692C84.33 22.9071 84.293 23.1213 84.2138 23.3214C84.1347 23.5215 84.0152 23.7032 83.8627 23.855C83.7181 24.0092 83.5428 24.1316 83.3482 24.2143C83.1536 24.297 82.9439 24.3383 82.7325 24.3354C82.5149 24.3362 82.2995 24.2918 82.1001 24.2048C81.9006 24.1178 81.7214 23.9902 81.574 23.8302C81.4207 23.674 81.3002 23.4888 81.2194 23.2854C81.1387 23.082 81.0994 22.8645 81.1039 22.6457C81.1066 22.3269 81.204 22.0161 81.3837 21.7528C81.5635 21.4894 81.8174 21.2855 82.1133 21.1668C82.4092 21.0481 82.7337 21.02 83.0456 21.0861C83.3575 21.1522 83.6427 21.3095 83.865 21.5381C84.0148 21.6899 84.1326 21.8703 84.2112 22.0685C84.2899 22.2668 84.3278 22.4788 84.3227 22.692V22.692ZM83.9837 35.2918H81.4587V25.2203H83.9837V35.2918Z" fill="url(#paint10_linear_907_1886)"/>
<path d="M96.2601 39H93.7307V34.2395C93.3196 34.6541 92.8308 34.9837 92.2924 35.2094C91.7539 35.4351 91.1762 35.5525 90.5923 35.555C90.0085 35.5574 89.4298 35.4447 88.8895 35.2235C88.3492 35.0022 87.8577 34.6767 87.4432 34.2655C87.3416 34.166 87.2454 34.0611 87.155 33.9513C86.2695 32.9344 85.7888 31.6275 85.8044 30.2792C85.767 28.933 86.216 27.6185 87.0691 26.5766C87.8203 25.6641 88.9032 25.0875 90.0796 24.9735C91.2559 24.8594 92.4294 25.2174 93.3419 25.9685C93.4769 26.0791 93.6052 26.1976 93.7261 26.3234V25.2214H96.2556L96.2601 39ZM93.8471 30.2385C93.8741 29.4648 93.6007 28.7107 93.0842 28.134C92.8296 27.8534 92.5161 27.6325 92.1661 27.4873C91.8162 27.3422 91.4384 27.2762 91.06 27.2942C90.679 27.2777 90.2992 27.3473 89.9489 27.498C89.5986 27.6487 89.2868 27.8765 89.0369 28.1645C88.5606 28.7561 88.3018 29.4932 88.3036 30.2527C88.3055 31.0122 88.5679 31.748 89.047 32.3373C89.2936 32.6319 89.604 32.8664 89.9547 33.0231C90.3055 33.1798 90.6873 33.2545 91.0713 33.2415C91.4526 33.2537 91.8319 33.181 92.1818 33.0287C92.5317 32.8765 92.8434 32.6484 93.0944 32.361C93.6002 31.7715 93.8685 31.0149 93.8471 30.2385V30.2385Z" fill="url(#paint11_linear_907_1886)"/>
<path d="M107.687 29.4846C107.687 31.25 107.545 32.4549 107.267 33.107C106.562 34.7458 105.213 35.5652 103.221 35.5652C101.059 35.5652 99.6816 34.6279 99.0879 32.7533C98.8411 31.6566 98.7412 30.5319 98.7906 29.4089V25.2214H101.365V30.0814C101.353 30.5883 101.38 31.0955 101.447 31.5982C101.478 31.8512 101.559 32.0956 101.685 32.3172C101.811 32.5389 101.98 32.7335 102.181 32.89C102.49 33.1013 102.858 33.2078 103.232 33.194C103.611 33.2199 103.986 33.117 104.299 32.9021C104.611 32.6873 104.841 32.3731 104.953 32.0107C105.09 31.3985 105.143 30.7701 105.109 30.1436V25.2214H107.638L107.687 29.4846Z" fill="url(#paint12_linear_907_1886)"/>
<path d="M120.352 30.5075V31.0127H112.214C112.301 31.6914 112.647 32.3101 113.18 32.7386C113.73 33.1599 114.409 33.378 115.102 33.3557C115.553 33.3619 116.002 33.2778 116.42 33.1083C116.839 32.9389 117.22 32.6875 117.54 32.369L119.669 33.3806C119.161 34.1057 118.476 34.6896 117.679 35.0771C116.883 35.4647 116.001 35.6432 115.117 35.5958C114.411 35.6187 113.707 35.5006 113.047 35.2483C112.387 34.996 111.784 34.6146 111.274 34.1265C110.771 33.6351 110.377 33.0445 110.116 32.3922C109.854 31.7399 109.732 31.0403 109.756 30.338C109.735 29.6351 109.854 28.9349 110.106 28.2785C110.358 27.622 110.739 27.0224 111.225 26.5144C111.708 26.0112 112.292 25.6159 112.939 25.3543C113.586 25.0927 114.28 24.9708 114.978 24.9966C115.694 24.9683 116.409 25.0886 117.076 25.3498C117.744 25.611 118.35 26.0076 118.858 26.5144C119.365 27.0433 119.76 27.6703 120.017 28.3569C120.273 29.0435 120.388 29.7753 120.352 30.5075ZM117.792 28.9896C117.631 28.4234 117.272 27.9335 116.781 27.6085C116.286 27.2727 115.7 27.096 115.102 27.1022C114.439 27.092 113.791 27.2988 113.256 27.691C112.845 28.0391 112.527 28.4838 112.331 28.9851L117.792 28.9896Z" fill="url(#paint13_linear_907_1886)"/>
<path d="M34.0414 29.9062C33.5151 28.3092 32.5569 27.107 30.9926 26.477C30.9267 26.4369 30.8666 26.3881 30.814 26.3318C31.1566 26.114 31.48 25.9325 31.7755 25.7129C32.6821 25.0618 33.3227 24.1047 33.579 23.0183C34.3085 20.0584 32.897 16.9671 30.2166 15.6725C28.8308 15.0035 27.3543 14.7713 25.8404 14.7651C22.2668 14.752 18.7043 14.7651 15.1354 14.7651H14.6606V21.4899H18.9359V18.9231C18.9972 18.8952 19.0615 18.8745 19.1275 18.8614C21.4621 18.8614 23.7963 18.8324 26.1304 18.881C27.2157 18.9035 28.1887 19.3115 28.8595 20.2602C29.9186 21.7582 29.3567 23.5689 27.6447 24.133C27.1881 24.284 26.7057 24.3489 26.1566 24.4723C26.1566 25.395 26.1453 26.3194 26.1566 27.2421C26.1729 28.3647 25.9025 28.2638 27.2091 28.6162C28.0776 28.8252 28.8585 29.3018 29.4413 29.9788C30.4826 31.2215 30.2699 32.971 28.8922 33.7767C28.2324 34.1306 27.519 34.3738 26.7805 34.4965C26.0909 34.6362 25.3649 34.6021 24.6688 34.6417V38.7794C26.4977 38.8331 28.2733 38.7565 29.9937 38.1863C33.5866 36.9965 35.2486 33.5851 34.0414 29.9062Z" fill="url(#paint14_linear_907_1886)"/>
<path d="M22.6834 20.8595L22.4852 21.2526C21.6911 22.8286 20.4861 24.161 18.9975 25.109C17.4852 26.0571 15.7322 26.5506 13.9474 26.5307C12.6894 26.5493 11.4409 26.3115 10.278 25.8316C9.115 25.3517 8.06204 24.6399 7.18332 23.7395C5.3395 21.8485 4.40562 19.5761 4.40562 16.9886C4.39164 15.7332 4.62871 14.4877 5.10292 13.3252C5.57713 12.1628 6.27889 11.1068 7.16699 10.2194C8.54209 8.8173 10.3261 7.88693 12.2629 7.56187L9.31932 11.0952L11.3156 10.3123L11.9914 12.2745L13.9067 7.42068H14.1096L16.0184 12.073L16.5563 10.463L18.9932 11.4038L15.7411 7.5782C16.9023 7.78627 18.0101 8.22421 18.9997 8.86633C20.4892 9.80316 21.6949 11.1286 22.487 12.6999L22.6866 13.0882H26.3841L25.9728 12.0992C25.0117 9.74181 23.3828 7.71657 21.2863 6.27228C20.9109 6.01521 20.5221 5.77822 20.1216 5.56234C21.4813 4.51775 21.629 0.543021 20.3376 0.0635561C19.097 -0.397761 16.0964 1.72227 15.1408 2.43547C15.044 2.2999 14.9164 2.18935 14.7683 2.11303C14.6203 2.03671 14.4562 1.99682 14.2896 1.99666H14.139C13.9365 1.99601 13.7365 2.04141 13.5542 2.12945C13.3718 2.21748 13.2119 2.34584 13.0864 2.5048C12.2498 1.87797 9.07396 -0.417361 7.7891 0.0711781C6.50423 0.559717 6.63889 4.35406 7.92085 5.49519C6.76936 6.11541 5.71643 6.90328 4.79652 7.833C2.27688 10.3512 1 13.4309 1 16.9867C1 20.5426 2.27579 23.6307 4.79652 26.1677C7.31725 28.7048 10.3929 29.9642 13.9488 29.9642C16.5729 29.9831 19.1376 29.1839 21.2863 27.6776C23.3894 26.2398 25.0205 24.2125 25.9746 21.8504L26.3855 20.8595H22.6834ZM15.0355 4.02087L15.0976 4.08547L14.9887 4.07604C15.0055 4.05867 15.0211 4.04024 15.0355 4.02087V4.02087Z" fill="url(#paint15_linear_907_1886)"/>
</g>
<defs>
<linearGradient id="paint0_linear_907_1886" x1="26.7866" y1="14.6583" x2="124.092" y2="9.11685" gradientUnits="userSpaceOnUse">
<stop stop-color="#9C7645"/>
<stop offset="0.51" stop-color="#E9B876"/>
<stop offset="1" stop-color="#B18852"/>
</linearGradient>
<linearGradient id="paint1_linear_907_1886" x1="26.9147" y1="16.9199" x2="124.22" y2="11.3796" gradientUnits="userSpaceOnUse">
<stop stop-color="#9C7645"/>
<stop offset="0.51" stop-color="#E9B876"/>
<stop offset="1" stop-color="#B18852"/>
</linearGradient>
<linearGradient id="paint2_linear_907_1886" x1="26.8642" y1="16.0237" x2="124.17" y2="10.4833" gradientUnits="userSpaceOnUse">
<stop stop-color="#9C7645"/>
<stop offset="0.51" stop-color="#E9B876"/>
<stop offset="1" stop-color="#B18852"/>
</linearGradient>
<linearGradient id="paint3_linear_907_1886" x1="26.9858" y1="18.1677" x2="124.291" y2="12.6273" gradientUnits="userSpaceOnUse">
<stop stop-color="#9C7645"/>
<stop offset="0.51" stop-color="#E9B876"/>
<stop offset="1" stop-color="#B18852"/>
</linearGradient>
<linearGradient id="paint4_linear_907_1886" x1="27.0243" y1="18.8165" x2="124.329" y2="13.2761" gradientUnits="userSpaceOnUse">
<stop stop-color="#9C7645"/>
<stop offset="0.51" stop-color="#E9B876"/>
<stop offset="1" stop-color="#B18852"/>
</linearGradient>
<linearGradient id="paint5_linear_907_1886" x1="27.0596" y1="19.4459" x2="124.365" y2="13.9056" gradientUnits="userSpaceOnUse">
<stop stop-color="#9C7645"/>
<stop offset="0.51" stop-color="#E9B876"/>
<stop offset="1" stop-color="#B18852"/>
</linearGradient>
<linearGradient id="paint6_linear_907_1886" x1="27.6259" y1="29.4044" x2="124.931" y2="23.8629" gradientUnits="userSpaceOnUse">
<stop stop-color="#9C7645"/>
<stop offset="0.51" stop-color="#E9B876"/>
<stop offset="1" stop-color="#B18852"/>
</linearGradient>
<linearGradient id="paint7_linear_907_1886" x1="27.7712" y1="31.9451" x2="125.077" y2="26.4037" gradientUnits="userSpaceOnUse">
<stop stop-color="#9C7645"/>
<stop offset="0.51" stop-color="#E9B876"/>
<stop offset="1" stop-color="#B18852"/>
</linearGradient>
<linearGradient id="paint8_linear_907_1886" x1="27.8101" y1="32.6188" x2="125.116" y2="27.0784" gradientUnits="userSpaceOnUse">
<stop stop-color="#9C7645"/>
<stop offset="0.51" stop-color="#E9B876"/>
<stop offset="1" stop-color="#B18852"/>
</linearGradient>
<linearGradient id="paint9_linear_907_1886" x1="27.7316" y1="31.2411" x2="125.036" y2="25.6996" gradientUnits="userSpaceOnUse">
<stop stop-color="#9C7645"/>
<stop offset="0.51" stop-color="#E9B876"/>
<stop offset="1" stop-color="#B18852"/>
</linearGradient>
<linearGradient id="paint10_linear_907_1886" x1="27.7358" y1="31.3371" x2="125.041" y2="25.7956" gradientUnits="userSpaceOnUse">
<stop stop-color="#9C7645"/>
<stop offset="0.51" stop-color="#E9B876"/>
<stop offset="1" stop-color="#B18852"/>
</linearGradient>
<linearGradient id="paint11_linear_907_1886" x1="27.9855" y1="35.6963" x2="125.291" y2="30.156" gradientUnits="userSpaceOnUse">
<stop stop-color="#9C7645"/>
<stop offset="0.51" stop-color="#E9B876"/>
<stop offset="1" stop-color="#B18852"/>
</linearGradient>
<linearGradient id="paint12_linear_907_1886" x1="27.921" y1="34.5605" x2="125.225" y2="29.0201" gradientUnits="userSpaceOnUse">
<stop stop-color="#9C7645"/>
<stop offset="0.51" stop-color="#E9B876"/>
<stop offset="1" stop-color="#B18852"/>
</linearGradient>
<linearGradient id="paint13_linear_907_1886" x1="27.9593" y1="35.2612" x2="125.265" y2="29.7209" gradientUnits="userSpaceOnUse">
<stop stop-color="#9C7645"/>
<stop offset="0.51" stop-color="#E9B876"/>
<stop offset="1" stop-color="#B18852"/>
</linearGradient>
<linearGradient id="paint14_linear_907_1886" x1="14.2685" y1="26.7397" x2="34.003" y2="26.7397" gradientUnits="userSpaceOnUse">
<stop stop-color="#9C7645"/>
<stop offset="0.51" stop-color="#E9B876"/>
<stop offset="1" stop-color="#B18852"/>
</linearGradient>
<linearGradient id="paint15_linear_907_1886" x1="0.383367" y1="15.0425" x2="25.9916" y2="15.0425" gradientUnits="userSpaceOnUse">
<stop stop-color="#9C7645"/>
<stop offset="0.51" stop-color="#E9B876"/>
<stop offset="1" stop-color="#B18852"/>
</linearGradient>
<clipPath id="clip0_907_1886">
<rect width="121.481" height="40" fill="white"/>
</clipPath>
</defs>
</svg>
