<svg width="48" height="48" viewBox="0 0 48 48" fill="none" xmlns="http://www.w3.org/2000/svg">
<circle cx="24" cy="24" r="24" fill="#2870FB" fill-opacity="0.1"/>
<path d="M29.9575 38.9854H27.0931L26.6815 33.5425H21.3185L20.9068 38.9854H18.0425C17.4862 38.9854 17.0352 39.4364 17.0352 39.9927C17.0352 40.549 17.4862 41 18.0425 41H29.9575C30.5138 41 30.9648 40.549 30.9648 39.9927C30.9648 39.4364 30.5138 38.9854 29.9575 38.9854V38.9854Z" fill="#2870FB"/>
<path d="M37.0401 14.4839H34.6091L27.3591 21.7091C27.5363 23.2845 27.0066 24.883 25.8467 26.0426C24.2103 27.679 19.0861 28.4829 16.7822 28.7415C16.1073 28.8038 15.6056 28.2448 15.6721 27.6308C15.9287 25.3641 16.7259 20.2114 18.3711 18.5662C19.553 17.3843 21.1607 16.88 22.7052 17.0539L25.2659 14.4839H10.9598C10.3924 14.4839 9.93103 14.9452 9.93103 15.5127V30.499C9.93103 31.0665 10.3924 31.5278 10.9598 31.5278H37.0401C37.6076 31.5278 38.0689 31.0665 38.0689 30.499V15.5127C38.0689 14.9452 37.6076 14.4839 37.0401 14.4839V14.4839Z" fill="#2870FB"/>
<path d="M26.6398 19.5816C26.9083 19.3141 34.2177 12.0295 37.0589 9.19811C37.5404 8.68907 37.5304 7.87515 37.0341 7.37955C36.5378 6.88328 35.7239 6.87253 35.2149 7.35403C35.1807 7.38835 24.9825 17.6221 24.832 17.7731C25.5454 18.2006 26.1822 18.818 26.6398 19.5816Z" fill="#2870FB"/>
<path d="M24.4224 19.9911C23.1426 18.7112 21.0661 18.7192 19.7955 19.9911C18.9627 20.8238 18.222 23.9976 17.8406 26.573C19.3164 26.3542 23.4671 25.6305 24.4943 24.5442C25.7011 23.2577 25.6682 21.2368 24.4224 19.9911Z" fill="#2870FB"/>
</svg>
