<svg width="30" height="65" viewBox="0 0 30 65" fill="none" xmlns="http://www.w3.org/2000/svg">
<g filter="url(#filter0_i_644_10214)">
<rect width="30" height="42.2983" rx="15" fill="white"/>
<rect width="30" height="42.2983" rx="15" fill="url(#paint0_radial_644_10214)" fill-opacity="0.1"/>
<rect width="30" height="42.2983" rx="15" fill="url(#paint1_radial_644_10214)" fill-opacity="0.1"/>
<path d="M15 9.06396C13.7573 9.06396 12.75 10.1091 12.75 11.3986V19.5698C12.75 20.8592 13.7573 21.9044 15 21.9044C16.2427 21.9044 17.25 20.8592 17.25 19.5698V11.3986C17.25 10.1091 16.2427 9.06396 15 9.06396Z" fill="#000060"/>
<path d="M15 9.06396C13.7573 9.06396 12.75 10.1091 12.75 11.3986V19.5698C12.75 20.8592 13.7573 21.9044 15 21.9044C16.2427 21.9044 17.25 20.8592 17.25 19.5698V11.3986C17.25 10.1091 16.2427 9.06396 15 9.06396Z" fill="url(#paint2_radial_644_10214)" fill-opacity="0.2"/>
</g>
<g filter="url(#filter1_dd_644_10214)">
<path fill-rule="evenodd" clip-rule="evenodd" d="M17.1962 35H13.1962V48H10L15.1962 57L20.3923 48H17.1962V35Z" fill="white"/>
<path fill-rule="evenodd" clip-rule="evenodd" d="M17.1962 35H13.1962V48H10L15.1962 57L20.3923 48H17.1962V35Z" fill="url(#paint3_radial_644_10214)" fill-opacity="0.1"/>
</g>
<defs>
<filter id="filter0_i_644_10214" x="0" y="-4" width="30" height="46.2983" filterUnits="userSpaceOnUse" color-interpolation-filters="sRGB">
<feFlood flood-opacity="0" result="BackgroundImageFix"/>
<feBlend mode="normal" in="SourceGraphic" in2="BackgroundImageFix" result="shape"/>
<feColorMatrix in="SourceAlpha" type="matrix" values="0 0 0 0 0 0 0 0 0 0 0 0 0 0 0 0 0 0 127 0" result="hardAlpha"/>
<feOffset dy="-4"/>
<feGaussianBlur stdDeviation="2"/>
<feComposite in2="hardAlpha" operator="arithmetic" k2="-1" k3="1"/>
<feColorMatrix type="matrix" values="0 0 0 0 0 0 0 0 0 0 0 0 0 0 0 0 0 0 0.1 0"/>
<feBlend mode="normal" in2="shape" result="effect1_innerShadow_644_10214"/>
</filter>
<filter id="filter1_dd_644_10214" x="6" y="34" width="18.3923" height="31" filterUnits="userSpaceOnUse" color-interpolation-filters="sRGB">
<feFlood flood-opacity="0" result="BackgroundImageFix"/>
<feColorMatrix in="SourceAlpha" type="matrix" values="0 0 0 0 0 0 0 0 0 0 0 0 0 0 0 0 0 0 127 0" result="hardAlpha"/>
<feOffset dy="2"/>
<feGaussianBlur stdDeviation="1.5"/>
<feColorMatrix type="matrix" values="0 0 0 0 1 0 0 0 0 1 0 0 0 0 1 0 0 0 0.1 0"/>
<feBlend mode="normal" in2="BackgroundImageFix" result="effect1_dropShadow_644_10214"/>
<feColorMatrix in="SourceAlpha" type="matrix" values="0 0 0 0 0 0 0 0 0 0 0 0 0 0 0 0 0 0 127 0" result="hardAlpha"/>
<feOffset dy="4"/>
<feGaussianBlur stdDeviation="2"/>
<feColorMatrix type="matrix" values="0 0 0 0 0 0 0 0 0 0 0 0 0 0 0 0 0 0 0.1 0"/>
<feBlend mode="normal" in2="effect1_dropShadow_644_10214" result="effect2_dropShadow_644_10214"/>
<feBlend mode="normal" in="SourceGraphic" in2="effect2_dropShadow_644_10214" result="shape"/>
</filter>
<radialGradient id="paint0_radial_644_10214" cx="0" cy="0" r="1" gradientUnits="userSpaceOnUse" gradientTransform="translate(24.75 3.02131) rotate(112.916) scale(41.4123 29.4351)">
<stop stop-opacity="0.5"/>
<stop offset="1" stop-color="white" stop-opacity="0"/>
</radialGradient>
<radialGradient id="paint1_radial_644_10214" cx="0" cy="0" r="1" gradientUnits="userSpaceOnUse" gradientTransform="translate(15 31.7237) rotate(-90) scale(29.7095 21.0714)">
<stop stop-opacity="0.5"/>
<stop offset="1" stop-color="white" stop-opacity="0"/>
</radialGradient>
<radialGradient id="paint2_radial_644_10214" cx="0" cy="0" r="1" gradientUnits="userSpaceOnUse" gradientTransform="translate(15.6067 10.5384) rotate(99.652) scale(10.8553 3.8125)">
<stop stop-color="white"/>
<stop offset="1" stop-color="white" stop-opacity="0.2"/>
</radialGradient>
<radialGradient id="paint3_radial_644_10214" cx="0" cy="0" r="1" gradientUnits="userSpaceOnUse" gradientTransform="translate(13.5 54.5) rotate(-82.6942) scale(19.6596 9.28678)">
<stop/>
<stop offset="1" stop-color="white" stop-opacity="0"/>
</radialGradient>
</defs>
</svg>
