<svg width="58" height="59" viewBox="0 0 58 59" fill="none" xmlns="http://www.w3.org/2000/svg">
<circle cx="29" cy="24" r="24" fill="#00A76E" fill-opacity="0.1"/>
<g filter="url(#filter0_d_849_3)">
<path d="M29 7C24.4913 7 20.1673 8.79107 16.9792 11.9792C13.7911 15.1673 12 19.4913 12 24C12 28.5087 13.7911 32.8327 16.9792 36.0208C20.1673 39.2089 24.4913 41 29 41C29.3722 41.0005 29.7409 40.9275 30.0849 40.7853C30.4289 40.6431 30.7414 40.4344 31.0046 40.1712C31.2678 39.908 31.4765 39.5955 31.6187 39.2515C31.7609 38.9075 31.8339 38.5388 31.8334 38.1666C31.8378 37.4632 31.5744 36.7844 31.0967 36.2681C30.736 35.8588 30.501 35.3541 30.4198 34.8146C30.3386 34.2752 30.4147 33.7237 30.6389 33.2263C30.8631 32.729 31.226 32.3068 31.6841 32.0105C32.1421 31.7141 32.6759 31.5561 33.2215 31.5553H36.5553C39.0599 31.5544 41.4617 30.5591 43.2327 28.7881C45.0038 27.017 45.9991 24.6153 46 22.1107C46.0012 13.7622 38.3891 7 29 7ZM18.6125 23.9988C18.0521 23.9988 17.5043 23.8326 17.0384 23.5212C16.5724 23.2099 16.2092 22.7674 15.9948 22.2497C15.7803 21.7319 15.7242 21.1622 15.8336 20.6126C15.9429 20.063 16.2127 19.5581 16.609 19.1618C17.0053 18.7656 17.5101 18.4957 18.0597 18.3864C18.6094 18.2771 19.1791 18.3332 19.6968 18.5476C20.2145 18.7621 20.6571 19.1252 20.9684 19.5912C21.2797 20.0572 21.4459 20.605 21.4459 21.1654C21.4464 21.5376 21.3735 21.9062 21.2312 22.2502C21.089 22.5942 20.8803 22.9068 20.6171 23.17C20.3539 23.4332 20.0414 23.6419 19.6974 23.7841C19.3534 23.9263 18.9847 23.9992 18.6125 23.9988ZM24.2793 16.4447C23.7189 16.4447 23.1711 16.2785 22.7052 15.9672C22.2392 15.6558 21.8761 15.2133 21.6616 14.6956C21.4471 14.1778 21.391 13.6081 21.5004 13.0585C21.6097 12.5089 21.8795 12.004 22.2758 11.6078C22.6721 11.2115 23.1769 10.9416 23.7266 10.8323C24.2762 10.723 24.8459 10.7791 25.3636 10.9935C25.8814 11.208 26.3239 11.5712 26.6352 12.0371C26.9465 12.5031 27.1127 13.0509 27.1127 13.6113C27.1132 13.9835 27.0403 14.3522 26.898 14.6961C26.7558 15.0401 26.5471 15.3527 26.2839 15.6159C26.0207 15.8791 25.7082 16.0878 25.3642 16.23C25.0202 16.3722 24.6515 16.4452 24.2793 16.4447ZM33.7236 16.4447C33.1632 16.4447 32.6154 16.2785 32.1494 15.9672C31.6835 15.6558 31.3203 15.2133 31.1059 14.6956C30.8914 14.1778 30.8353 13.6081 30.9446 13.0585C31.0539 12.5089 31.3238 12.004 31.7201 11.6078C32.1163 11.2115 32.6212 10.9416 33.1708 10.8323C33.7204 10.723 34.2901 10.7791 34.8079 10.9935C35.3256 11.208 35.7681 11.5712 36.0795 12.0371C36.3908 12.5031 36.557 13.0509 36.557 13.6113C36.5575 13.9835 36.4845 14.3522 36.3423 14.6961C36.2001 15.0401 35.9914 15.3527 35.7282 15.6159C35.465 15.8791 35.1524 16.0878 34.8085 16.23C34.4645 16.3722 34.0958 16.4452 33.7236 16.4447ZM39.3904 23.9988C38.83 23.9988 38.2822 23.8326 37.8162 23.5212C37.3503 23.2099 36.9871 22.7674 36.7727 22.2497C36.5582 21.7319 36.5021 21.1622 36.6114 20.6126C36.7208 20.063 36.9906 19.5581 37.3869 19.1618C37.7831 18.7656 38.288 18.4957 38.8376 18.3864C39.3872 18.2771 39.9569 18.3332 40.4747 18.5476C40.9924 18.7621 41.4349 19.1252 41.7463 19.5912C42.0576 20.0572 42.2238 20.605 42.2238 21.1654C42.2243 21.5376 42.1513 21.9062 42.0091 22.2502C41.8669 22.5942 41.6582 22.9068 41.395 23.17C41.1318 23.4332 40.8192 23.6419 40.4753 23.7841C40.1313 23.9263 39.7626 23.9992 39.3904 23.9988Z" fill="#00A76E"/>
</g>
<defs>
<filter id="filter0_d_849_3" x="0" y="1" width="58" height="58" filterUnits="userSpaceOnUse" color-interpolation-filters="sRGB">
<feFlood flood-opacity="0" result="BackgroundImageFix"/>
<feColorMatrix in="SourceAlpha" type="matrix" values="0 0 0 0 0 0 0 0 0 0 0 0 0 0 0 0 0 0 127 0" result="hardAlpha"/>
<feOffset dy="6"/>
<feGaussianBlur stdDeviation="6"/>
<feColorMatrix type="matrix" values="0 0 0 0 0 0 0 0 0 0 0 0 0 0 0 0 0 0 0.161 0"/>
<feBlend mode="normal" in2="BackgroundImageFix" result="effect1_dropShadow_849_3"/>
<feBlend mode="normal" in="SourceGraphic" in2="effect1_dropShadow_849_3" result="shape"/>
</filter>
</defs>
</svg>
