<svg width="144" height="36" viewBox="0 0 144 36" fill="none" xmlns="http://www.w3.org/2000/svg">
<rect width="36" height="36" rx="18" fill="white" fill-opacity="0.2"/>
<path d="M15.5977 15.627C16.2617 14.9629 17.0625 14.6309 18 14.6309C18.9375 14.6309 19.7285 14.9629 20.373 15.627C21.0371 16.2715 21.3691 17.0625 21.3691 18C21.3691 18.9375 21.0371 19.7383 20.373 20.4023C19.7285 21.0469 18.9375 21.3691 18 21.3691C17.0625 21.3691 16.2617 21.0469 15.5977 20.4023C14.9531 19.7383 14.6309 18.9375 14.6309 18C14.6309 17.0625 14.9531 16.2715 15.5977 15.627ZM16.4473 19.5527C16.877 19.9824 17.3945 20.1973 18 20.1973C18.6055 20.1973 19.123 19.9824 19.5527 19.5527C19.9824 19.123 20.1973 18.6055 20.1973 18C20.1973 17.3945 19.9824 16.877 19.5527 16.4473C19.123 16.0176 18.6055 15.8027 18 15.8027C17.3945 15.8027 16.877 16.0176 16.4473 16.4473C16.0176 16.877 15.8027 17.3945 15.8027 18C15.8027 18.6055 16.0176 19.123 16.4473 19.5527ZM22.043 13.957C22.1992 14.0938 22.2773 14.2695 22.2773 14.4844C22.2773 14.6992 22.1992 14.8848 22.043 15.041C21.9062 15.1973 21.7305 15.2754 21.5156 15.2754C21.3008 15.2754 21.1152 15.1973 20.959 15.041C20.8027 14.8848 20.7246 14.6992 20.7246 14.4844C20.7246 14.2695 20.8027 14.0938 20.959 13.957C21.1152 13.8008 21.3008 13.7227 21.5156 13.7227C21.7305 13.7227 21.9062 13.8008 22.043 13.957ZM24.5332 15.3047C24.5527 15.832 24.5625 16.7305 24.5625 18C24.5625 19.2695 24.5527 20.168 24.5332 20.6953C24.4746 21.8867 24.1133 22.8145 23.4492 23.4785C22.8047 24.123 21.8867 24.4648 20.6953 24.5039C20.168 24.543 19.2695 24.5625 18 24.5625C16.7305 24.5625 15.832 24.543 15.3047 24.5039C14.1133 24.4453 13.1953 24.0938 12.5508 23.4492C12.2969 23.2148 12.0918 22.9414 11.9355 22.6289C11.7793 22.3164 11.6621 22.0137 11.584 21.7207C11.5254 21.4277 11.4961 21.0859 11.4961 20.6953C11.457 20.168 11.4375 19.2695 11.4375 18C11.4375 16.7305 11.457 15.8223 11.4961 15.2754C11.5547 14.1035 11.9062 13.1953 12.5508 12.5508C13.1953 11.8867 14.1133 11.5254 15.3047 11.4668C15.832 11.4473 16.7305 11.4375 18 11.4375C19.2695 11.4375 20.168 11.4473 20.6953 11.4668C21.8867 11.5254 22.8047 11.8867 23.4492 12.5508C24.1133 13.1953 24.4746 14.1133 24.5332 15.3047ZM23.127 21.8672C23.1855 21.7109 23.2344 21.5156 23.2734 21.2812C23.3125 21.0273 23.3418 20.7344 23.3613 20.4023C23.3809 20.0508 23.3906 19.7676 23.3906 19.5527C23.3906 19.3379 23.3906 19.0352 23.3906 18.6445C23.3906 18.2539 23.3906 18.0391 23.3906 18C23.3906 17.9414 23.3906 17.7266 23.3906 17.3555C23.3906 16.9648 23.3906 16.6621 23.3906 16.4473C23.3906 16.2324 23.3809 15.959 23.3613 15.627C23.3418 15.2754 23.3125 14.9824 23.2734 14.748C23.2344 14.4941 23.1855 14.2891 23.127 14.1328C22.8926 13.5273 22.4727 13.1074 21.8672 12.873C21.7109 12.8145 21.5059 12.7656 21.252 12.7266C21.0176 12.6875 20.7246 12.6582 20.373 12.6387C20.041 12.6191 19.7676 12.6094 19.5527 12.6094C19.3574 12.6094 19.0547 12.6094 18.6445 12.6094C18.2539 12.6094 18.0391 12.6094 18 12.6094C17.9609 12.6094 17.7461 12.6094 17.3555 12.6094C16.9648 12.6094 16.6621 12.6094 16.4473 12.6094C16.2324 12.6094 15.9492 12.6191 15.5977 12.6387C15.2656 12.6582 14.9727 12.6875 14.7188 12.7266C14.4844 12.7656 14.2891 12.8145 14.1328 12.873C13.5273 13.1074 13.1074 13.5273 12.873 14.1328C12.8145 14.2891 12.7656 14.4941 12.7266 14.748C12.6875 14.9824 12.6582 15.2754 12.6387 15.627C12.6191 15.959 12.6094 16.2324 12.6094 16.4473C12.6094 16.6426 12.6094 16.9453 12.6094 17.3555C12.6094 17.7461 12.6094 17.9609 12.6094 18C12.6094 18.0781 12.6094 18.2637 12.6094 18.5566C12.6094 18.8301 12.6094 19.0645 12.6094 19.2598C12.6094 19.4355 12.6094 19.6699 12.6094 19.9629C12.6289 20.2559 12.6484 20.5098 12.668 20.7246C12.6875 20.9199 12.7168 21.125 12.7559 21.3398C12.7949 21.5547 12.834 21.7305 12.873 21.8672C13.127 22.4727 13.5469 22.8926 14.1328 23.127C14.2891 23.1855 14.4844 23.2344 14.7188 23.2734C14.9727 23.3125 15.2656 23.3418 15.5977 23.3613C15.9492 23.3809 16.2227 23.3906 16.418 23.3906C16.6328 23.3906 16.9355 23.3906 17.3262 23.3906C17.7363 23.3906 17.9609 23.3906 18 23.3906C18.0586 23.3906 18.2734 23.3906 18.6445 23.3906C19.0352 23.3906 19.3379 23.3906 19.5527 23.3906C19.7676 23.3906 20.041 23.3809 20.373 23.3613C20.7246 23.3418 21.0176 23.3125 21.252 23.2734C21.5059 23.2344 21.7109 23.1855 21.8672 23.127C22.4727 22.873 22.8926 22.4531 23.127 21.8672Z" fill="white"/>
<rect x="54" width="36" height="36" rx="18" fill="white" fill-opacity="0.2"/>
<path d="M77.1562 11.4375C77.5469 11.4375 77.8789 11.5742 78.1523 11.8477C78.4258 12.1211 78.5625 12.4531 78.5625 12.8438V23.1562C78.5625 23.5469 78.4258 23.8789 78.1523 24.1523C77.8789 24.4258 77.5469 24.5625 77.1562 24.5625H73.1426V20.1094H74.8418L75.1641 18H73.1426V16.623C73.1426 15.8809 73.5332 15.5098 74.3145 15.5098H75.2227V13.7227C74.6758 13.625 74.1387 13.5762 73.6113 13.5762C73.0449 13.5762 72.5566 13.6836 72.1465 13.8984C71.7559 14.1133 71.4434 14.4355 71.209 14.8652C70.9746 15.2949 70.8574 15.8027 70.8574 16.3887V18H69.0117V20.1094H70.8574V24.5625H66.8438C66.4531 24.5625 66.1211 24.4258 65.8477 24.1523C65.5742 23.8789 65.4375 23.5469 65.4375 23.1562V12.8438C65.4375 12.4531 65.5742 12.1211 65.8477 11.8477C66.1211 11.5742 66.4531 11.4375 66.8438 11.4375H77.1562Z" fill="white"/>
<rect x="108" width="36" height="36" rx="18" fill="white" fill-opacity="0.2"/>
<path d="M131.947 14.9531C131.967 15.0312 131.977 15.1582 131.977 15.334C131.977 16.3691 131.781 17.4043 131.391 18.4395C131 19.4551 130.443 20.3926 129.721 21.252C129.018 22.0918 128.1 22.7754 126.967 23.3027C125.834 23.8301 124.584 24.0938 123.217 24.0938C121.498 24.0938 119.926 23.6348 118.5 22.7168C118.715 22.7363 118.959 22.7461 119.232 22.7461C120.658 22.7461 121.938 22.3066 123.07 21.4277C122.387 21.4277 121.781 21.2324 121.254 20.8418C120.746 20.4316 120.395 19.9238 120.199 19.3184C120.395 19.3379 120.58 19.3477 120.756 19.3477C121.029 19.3477 121.303 19.3184 121.576 19.2598C121.107 19.1621 120.688 18.9668 120.316 18.6738C119.945 18.3809 119.652 18.0293 119.438 17.6191C119.223 17.1895 119.115 16.7305 119.115 16.2422V16.1836C119.545 16.4375 120.004 16.5742 120.492 16.5938C119.574 15.9688 119.115 15.1094 119.115 14.0156C119.115 13.4688 119.262 12.9512 119.555 12.4629C120.316 13.4199 121.244 14.1816 122.338 14.748C123.451 15.3145 124.633 15.627 125.883 15.6855C125.844 15.4512 125.824 15.2168 125.824 14.9824C125.824 14.1426 126.117 13.4199 126.703 12.8145C127.309 12.209 128.031 11.9062 128.871 11.9062C129.77 11.9062 130.521 12.2285 131.127 12.873C131.83 12.7363 132.484 12.4922 133.09 12.1406C132.855 12.8633 132.406 13.4297 131.742 13.8398C132.328 13.7617 132.914 13.5957 133.5 13.3418C133.07 13.9668 132.553 14.5039 131.947 14.9531Z" fill="white"/>
</svg>
