<svg width="52" height="55" viewBox="0 0 52 55" fill="none" xmlns="http://www.w3.org/2000/svg">
<circle cx="26" cy="24" r="24" fill="#F29900" fill-opacity="0.1"/>
<g filter="url(#filter0_d_849_4)">
<path d="M33.0016 22.5008H18.462V24.1162H33.0016V22.5008ZM12 35.4247C12 35.6392 12.0852 35.8449 12.2368 35.9965C12.3885 36.1482 12.5942 36.2334 12.8086 36.2334H38.6568C38.8712 36.2334 39.0769 36.1482 39.2285 35.9965C39.3802 35.8449 39.4654 35.6392 39.4654 35.4247V16.8465H12V35.4247ZM16.8465 21.6928C16.8465 21.4783 16.9317 21.2727 17.0834 21.121C17.235 20.9694 17.4407 20.8842 17.6552 20.8842H33.8102C34.0247 20.8842 34.2304 20.9694 34.382 21.121C34.5336 21.2727 34.6188 21.4783 34.6188 21.6928V24.9236C34.6188 25.1381 34.5336 25.3438 34.382 25.4954C34.2304 25.6471 34.0247 25.7322 33.8102 25.7322H17.6543C17.4398 25.7322 17.2341 25.6471 17.0825 25.4954C16.9308 25.3438 16.8457 25.1381 16.8457 24.9236V21.6931L16.8465 21.6928ZM17.6552 27.3471H33.8102C34.0179 27.3569 34.2137 27.4462 34.3572 27.5966C34.5007 27.747 34.5807 27.9469 34.5807 28.1548C34.5807 28.3626 34.5007 28.5625 34.3572 28.7129C34.2137 28.8633 34.0179 28.9527 33.8102 28.9625H17.6543C17.4466 28.9527 17.2508 28.8633 17.1073 28.7129C16.9638 28.5625 16.8838 28.3626 16.8838 28.1548C16.8838 27.9469 16.9638 27.747 17.1073 27.5966C17.2508 27.4462 17.4466 27.3569 17.6543 27.3471H17.6552ZM17.6552 30.5782H33.8102C34.2568 30.5782 34.6188 30.1317 34.6188 30.5782C34.6188 31.0247 34.2577 32.1936 33.8102 32.1936H17.6543C17.4466 32.1838 17.2508 32.0944 17.1073 31.944C16.9638 31.7936 16.8838 31.5938 16.8838 31.3859C16.8838 31.178 16.9638 30.9782 17.1073 30.8278C17.2508 30.6774 17.4466 30.588 17.6543 30.5782H17.6552ZM38.6568 12H12.8086C12.7024 12 12.5973 12.0209 12.4992 12.0616C12.4011 12.1022 12.3119 12.1617 12.2368 12.2368C12.1617 12.3119 12.1022 12.4011 12.0616 12.4992C12.0209 12.5973 12 12.7024 12 12.8086V15.2317H39.4627V12.8086C39.4627 12.7024 39.4418 12.5973 39.4011 12.4992C39.3605 12.4011 39.3009 12.3119 39.2259 12.2368C39.1508 12.1617 39.0616 12.1022 38.9635 12.0616C38.8654 12.0209 38.7603 12 38.6541 12H38.6568Z" fill="#F29900"/>
</g>
<defs>
<filter id="filter0_d_849_4" x="0" y="6" width="51.4654" height="48.2334" filterUnits="userSpaceOnUse" color-interpolation-filters="sRGB">
<feFlood flood-opacity="0" result="BackgroundImageFix"/>
<feColorMatrix in="SourceAlpha" type="matrix" values="0 0 0 0 0 0 0 0 0 0 0 0 0 0 0 0 0 0 127 0" result="hardAlpha"/>
<feOffset dy="6"/>
<feGaussianBlur stdDeviation="6"/>
<feColorMatrix type="matrix" values="0 0 0 0 0 0 0 0 0 0 0 0 0 0 0 0 0 0 0.161 0"/>
<feBlend mode="normal" in2="BackgroundImageFix" result="effect1_dropShadow_849_4"/>
<feBlend mode="normal" in="SourceGraphic" in2="effect1_dropShadow_849_4" result="shape"/>
</filter>
</defs>
</svg>
