<svg width="48" height="59" viewBox="0 0 48 59" fill="none" xmlns="http://www.w3.org/2000/svg">
<circle cx="24" cy="24" r="24" fill="#9128FB" fill-opacity="0.1"/>
<g filter="url(#filter0_d_849_5)">
<path d="M31.4545 7H16.2964C15.6878 7.00167 15.1047 7.24414 14.6744 7.67443C14.2441 8.10472 14.0017 8.68783 14 9.29635V38.7024C14.0016 39.3111 14.244 39.8944 14.6742 40.3249C15.1045 40.7554 15.6877 40.9981 16.2964 41H31.4545C32.0631 40.9984 32.6463 40.756 33.0766 40.3257C33.5069 39.8954 33.7493 39.3122 33.7509 38.7036V9.29635C33.7492 8.68783 33.5068 8.10472 33.0765 7.67443C32.6462 7.24414 32.0631 7.00167 31.4545 7V7ZM21.449 8.65543H26.2981C26.3719 8.65543 26.4427 8.68475 26.4949 8.73694C26.5471 8.78913 26.5764 8.85992 26.5764 8.93373C26.5764 9.00753 26.5471 9.07832 26.4949 9.13051C26.4427 9.1827 26.3719 9.21202 26.2981 9.21202H21.449C21.3752 9.21202 21.3044 9.1827 21.2522 9.13051C21.2 9.07832 21.1707 9.00753 21.1707 8.93373C21.1707 8.85992 21.2 8.78913 21.2522 8.73694C21.3044 8.68475 21.3752 8.65543 21.449 8.65543ZM23.8736 39.8514C23.6464 39.8515 23.4243 39.7842 23.2354 39.6581C23.0464 39.5319 22.8991 39.3526 22.8121 39.1427C22.7251 38.9329 22.7023 38.702 22.7465 38.4791C22.7908 38.2563 22.9001 38.0516 23.0607 37.8909C23.2212 37.7302 23.4258 37.6208 23.6486 37.5764C23.8714 37.532 24.1024 37.5546 24.3123 37.6415C24.5222 37.7283 24.7016 37.8755 24.8279 38.0643C24.9542 38.2532 25.0216 38.4752 25.0217 38.7024C25.022 39.0068 24.9013 39.2988 24.6863 39.5142C24.4713 39.7297 24.1796 39.851 23.8752 39.8514H23.8736ZM32.1511 36.7497H15.5981V10.6419H32.1528L32.1511 36.7497Z" fill="#9228FB"/>
</g>
<defs>
<filter id="filter0_d_849_5" x="2" y="1" width="43.7509" height="58" filterUnits="userSpaceOnUse" color-interpolation-filters="sRGB">
<feFlood flood-opacity="0" result="BackgroundImageFix"/>
<feColorMatrix in="SourceAlpha" type="matrix" values="0 0 0 0 0 0 0 0 0 0 0 0 0 0 0 0 0 0 127 0" result="hardAlpha"/>
<feOffset dy="6"/>
<feGaussianBlur stdDeviation="6"/>
<feColorMatrix type="matrix" values="0 0 0 0 0 0 0 0 0 0 0 0 0 0 0 0 0 0 0.161 0"/>
<feBlend mode="normal" in2="BackgroundImageFix" result="effect1_dropShadow_849_5"/>
<feBlend mode="normal" in="SourceGraphic" in2="effect1_dropShadow_849_5" result="shape"/>
</filter>
</defs>
</svg>
