<svg width="48" height="48" viewBox="0 0 48 48" fill="none" xmlns="http://www.w3.org/2000/svg">
<circle cx="24" cy="24" r="24" fill="#8EA6B0" fill-opacity="0.1"/>
<path d="M18.2 8.66675C18.0534 8.66675 18.5867 8.66675 10 8.66675C9.67335 8.66675 9.24002 8.26675 14 11.8334L18.2 8.66675Z" fill="#8EA6B0"/>
<path d="M19.3334 15.3334C19.3334 9.54006 19.3667 9.85339 19.2534 9.56006C13.96 13.5267 14.3134 13.3334 14 13.3334C13.6867 13.3334 14 13.4934 8.74669 9.56006C8.66669 9.86006 8.66669 9.57339 8.66669 15.3334C8.66669 15.687 8.80716 16.0262 9.05721 16.2762C9.30726 16.5262 9.6464 16.6667 10 16.6667H18C18.3536 16.6667 18.6928 16.5262 18.9428 16.2762C19.1929 16.0262 19.3334 15.687 19.3334 15.3334Z" fill="#8EA6B0"/>
<path d="M33.3334 13.5932L35.1734 12.6666L33.3334 11.7466V13.5932Z" fill="#8EA6B0"/>
<path d="M38 8.6665H30C29.6464 8.6665 29.3073 8.80698 29.0572 9.05703C28.8072 9.30708 28.6667 9.64622 28.6667 9.99984V15.3332C28.6667 15.6868 28.8072 16.0259 29.0572 16.276C29.3073 16.526 29.6464 16.6665 30 16.6665H38C38.3536 16.6665 38.6928 16.526 38.9428 16.276C39.1929 16.0259 39.3334 15.6868 39.3334 15.3332V9.99984C39.3334 9.64622 39.1929 9.30708 38.9428 9.05703C38.6928 8.80698 38.3536 8.6665 38 8.6665ZM35.7734 13.8598C33.7734 14.8465 33.7734 14.9198 33.3334 14.9198C32.9797 14.9198 32.6406 14.7794 32.3905 14.5293C32.1405 14.2793 32 13.9401 32 13.5865C32 11.9598 31.8134 11.1198 32.6667 10.6132C33.52 10.1065 34.0734 10.6132 35.8067 11.4732C36.0271 11.5868 36.2114 11.7597 36.3389 11.9723C36.4665 12.1849 36.5322 12.4289 36.5288 12.6768C36.5253 12.9247 36.4528 13.1668 36.3193 13.3758C36.1859 13.5848 35.9968 13.7524 35.7734 13.8598V13.8598Z" fill="#8EA6B0"/>
<path d="M34 35.3332C34.7364 35.3332 35.3334 34.7362 35.3334 33.9998C35.3334 33.2635 34.7364 32.6665 34 32.6665C33.2636 32.6665 32.6667 33.2635 32.6667 33.9998C32.6667 34.7362 33.2636 35.3332 34 35.3332Z" fill="#8EA6B0"/>
<path d="M38.7134 32.6665C38.5903 32.6671 38.4698 32.6311 38.3672 32.563C38.2647 32.495 38.1847 32.3979 38.1375 32.2842C38.0903 32.1705 38.0781 32.0454 38.1022 31.9247C38.1264 31.804 38.186 31.6932 38.2734 31.6065C38.3886 31.4904 38.4532 31.3334 38.4532 31.1698C38.4532 31.0063 38.3886 30.8493 38.2734 30.7332L37.2667 29.7265C37.2101 29.6678 37.1423 29.6212 37.0672 29.5893C36.9922 29.5574 36.9115 29.541 36.83 29.541C36.7485 29.541 36.6678 29.5574 36.5928 29.5893C36.5178 29.6212 36.4499 29.6678 36.3934 29.7265C36.3066 29.8139 36.1959 29.8734 36.0752 29.8976C35.9545 29.9218 35.8293 29.9095 35.7157 29.8623C35.602 29.8151 35.5049 29.7352 35.4368 29.6326C35.3687 29.5301 35.3327 29.4096 35.3334 29.2865C35.3334 29.1221 35.268 28.9644 35.1518 28.8481C35.0355 28.7318 34.8778 28.6665 34.7134 28.6665H33.2867C33.1223 28.6665 32.9646 28.7318 32.8483 28.8481C32.732 28.9644 32.6667 29.1221 32.6667 29.2865C32.6673 29.4096 32.6313 29.5301 32.5632 29.6326C32.4951 29.7352 32.3981 29.8151 32.2844 29.8623C32.1707 29.9095 32.0455 29.9218 31.9249 29.8976C31.8042 29.8734 31.6934 29.8139 31.6067 29.7265C31.5501 29.6678 31.4823 29.6212 31.4072 29.5893C31.3322 29.5574 31.2515 29.541 31.17 29.541C31.0885 29.541 31.0078 29.5574 30.9328 29.5893C30.8578 29.6212 30.7899 29.6678 30.7334 29.7265L29.7267 30.7332C29.6688 30.7902 29.6229 30.8582 29.5916 30.9332C29.5602 31.0081 29.544 31.0886 29.544 31.1698C29.544 31.2511 29.5602 31.3315 29.5916 31.4065C29.6229 31.4815 29.6688 31.5494 29.7267 31.6065C29.8109 31.6944 29.8677 31.8049 29.8901 31.9246C29.9125 32.0442 29.8996 32.1678 29.8529 32.2802C29.8062 32.3926 29.7278 32.489 29.6273 32.5576C29.5267 32.6262 29.4084 32.6641 29.2867 32.6665C29.1223 32.6665 28.9646 32.7318 28.8483 32.8481C28.732 32.9644 28.6667 33.1221 28.6667 33.2865V34.7132C28.6667 34.8776 28.732 35.0353 28.8483 35.1516C28.9646 35.2678 29.1223 35.3332 29.2867 35.3332C29.4098 35.3325 29.5303 35.3686 29.6328 35.4366C29.7354 35.5047 29.8153 35.6018 29.8625 35.7155C29.9097 35.8292 29.922 35.9543 29.8978 36.075C29.8736 36.1957 29.814 36.3065 29.7267 36.3932C29.668 36.4498 29.6213 36.5176 29.5895 36.5926C29.5576 36.6676 29.5412 36.7483 29.5412 36.8298C29.5412 36.9114 29.5576 36.992 29.5895 37.0671C29.6213 37.1421 29.668 37.2099 29.7267 37.2665L30.7334 38.2732C30.7899 38.3318 30.8578 38.3785 30.9328 38.4104C31.0078 38.4423 31.0885 38.4587 31.17 38.4587C31.2515 38.4587 31.3322 38.4423 31.4072 38.4104C31.4823 38.3785 31.5501 38.3318 31.6067 38.2732C31.6934 38.1858 31.8042 38.1262 31.9249 38.1021C32.0455 38.0779 32.1707 38.0902 32.2844 38.1373C32.3981 38.1845 32.4951 38.2645 32.5632 38.367C32.6313 38.4696 32.6673 38.5901 32.6667 38.7132C32.6667 38.8776 32.732 39.0353 32.8483 39.1516C32.9646 39.2678 33.1223 39.3332 33.2867 39.3332H34.7134C34.8778 39.3332 35.0355 39.2678 35.1518 39.1516C35.268 39.0353 35.3334 38.8776 35.3334 38.7132C35.3327 38.5901 35.3687 38.4696 35.4368 38.367C35.5049 38.2645 35.602 38.1845 35.7157 38.1373C35.8293 38.0902 35.9545 38.0779 36.0752 38.1021C36.1959 38.1262 36.3066 38.1858 36.3934 38.2732C36.4499 38.3318 36.5178 38.3785 36.5928 38.4104C36.6678 38.4423 36.7485 38.4587 36.83 38.4587C36.9115 38.4587 36.9922 38.4423 37.0672 38.4104C37.1423 38.3785 37.2101 38.3318 37.2667 38.2732L38.2734 37.2665C38.332 37.2099 38.3787 37.1421 38.4106 37.0671C38.4424 36.992 38.4589 36.9114 38.4589 36.8298C38.4589 36.7483 38.4424 36.6676 38.4106 36.5926C38.3787 36.5176 38.332 36.4498 38.2734 36.3932C38.186 36.3065 38.1264 36.1957 38.1022 36.075C38.0781 35.9543 38.0903 35.8292 38.1375 35.7155C38.1847 35.6018 38.2647 35.5047 38.3672 35.4366C38.4698 35.3686 38.5903 35.3325 38.7134 35.3332C38.8778 35.3332 39.0355 35.2678 39.1518 35.1516C39.268 35.0353 39.3334 34.8776 39.3334 34.7132V33.2865C39.3334 33.1221 39.268 32.9644 39.1518 32.8481C39.0355 32.7318 38.8778 32.6665 38.7134 32.6665ZM34 36.6665C33.4726 36.6665 32.957 36.5101 32.5185 36.2171C32.08 35.9241 31.7382 35.5076 31.5363 35.0203C31.3345 34.5331 31.2817 33.9969 31.3846 33.4796C31.4875 32.9623 31.7415 32.4872 32.1144 32.1142C32.4873 31.7413 32.9625 31.4873 33.4798 31.3844C33.9971 31.2815 34.5332 31.3343 35.0205 31.5362C35.5078 31.738 35.9243 32.0798 36.2173 32.5183C36.5103 32.9568 36.6667 33.4724 36.6667 33.9998C36.6667 34.7071 36.3857 35.3854 35.8856 35.8855C35.3855 36.3856 34.7073 36.6665 34 36.6665Z" fill="#8EA6B0"/>
<path d="M12.9467 29.0469L10.5867 31.4002C10.2121 31.7752 10.0018 32.2835 10.0018 32.8135C10.0018 33.3435 10.2121 33.8519 10.5867 34.2269L12.4733 36.1135C12.8483 36.4881 13.3567 36.6984 13.8867 36.6984C14.4167 36.6984 14.925 36.4881 15.3 36.1135L17.66 33.7602L12.9467 29.0469Z" fill="#8EA6B0"/>
<path d="M18.1267 35.1733L16.2467 37.06L18.1267 38.94C18.3829 39.1498 18.708 39.2568 19.0388 39.2401C19.3695 39.2233 19.6822 39.0841 19.9159 38.8496C20.1497 38.615 20.2878 38.3018 20.3033 37.971C20.3189 37.6402 20.2108 37.3155 20 37.06L18.1267 35.1733Z" fill="#8EA6B0"/>
<path d="M13.72 27.9333L18.7667 32.9799L27.0867 29.0399L17.66 19.6133L13.72 27.9333Z" fill="#8EA6B0"/>
<path d="M21.68 21.7532L24.9467 25.0199C25.068 24.5676 25.0681 24.0914 24.947 23.6391C24.8259 23.1867 24.5878 22.7743 24.2567 22.4432C23.9256 22.112 23.5132 21.874 23.0608 21.7528C22.6085 21.6317 22.1323 21.6319 21.68 21.7532V21.7532Z" fill="#8EA6B0"/>
<path d="M26.14 21.2269C26.5067 21.2269 26.52 21.1202 28.0267 19.6135C28.1522 19.4889 28.2231 19.3195 28.2237 19.1425C28.2243 18.9656 28.1546 18.7957 28.03 18.6702C27.9053 18.5446 27.7359 18.4738 27.559 18.4731C27.3821 18.4725 27.2122 18.5422 27.0867 18.6669L25.6733 20.0802C25.5774 20.1727 25.5114 20.2917 25.4838 20.4221C25.4562 20.5525 25.4683 20.6881 25.5185 20.8115C25.5687 20.9349 25.6548 21.0404 25.7655 21.1145C25.8763 21.1885 26.0068 21.2277 26.14 21.2269V21.2269Z" fill="#8EA6B0"/>
<path d="M24 19.3332V17.3332C24 17.1564 23.9298 16.9868 23.8048 16.8618C23.6797 16.7367 23.5102 16.6665 23.3334 16.6665C23.1565 16.6665 22.987 16.7367 22.8619 16.8618C22.7369 16.9868 22.6667 17.1564 22.6667 17.3332V19.3332C22.6667 19.51 22.7369 19.6796 22.8619 19.8046C22.987 19.9296 23.1565 19.9998 23.3334 19.9998C23.5102 19.9998 23.6797 19.9296 23.8048 19.8046C23.9298 19.6796 24 19.51 24 19.3332Z" fill="#8EA6B0"/>
<path d="M29.3334 22.6665H27.3334C27.1565 22.6665 26.987 22.7367 26.8619 22.8618C26.7369 22.9868 26.6667 23.1564 26.6667 23.3332C26.6667 23.51 26.7369 23.6796 26.8619 23.8046C26.987 23.9296 27.1565 23.9998 27.3334 23.9998H29.3334C29.5102 23.9998 29.6797 23.9296 29.8048 23.8046C29.9298 23.6796 30 23.51 30 23.3332C30 23.1564 29.9298 22.9868 29.8048 22.8618C29.6797 22.7367 29.5102 22.6665 29.3334 22.6665Z" fill="#8EA6B0"/>
</svg>
