<svg width="122" height="40" viewBox="0 0 122 40" fill="none" xmlns="http://www.w3.org/2000/svg">
<g clip-path="url(#clip0_907_2785)">
<path d="M23.7738 31.2055H11.4575V31.4576H23.7738V31.2055Z" fill="#423836"/>
<path d="M111.099 31.2055H98.7827V31.4576H111.099V31.2055Z" fill="#423836"/>
<path d="M27.3945 29.527C27.7018 29.2226 28.0851 29.0062 28.5046 28.9003C28.924 28.7945 29.3642 28.8031 29.7791 28.9253C29.9685 28.9808 30.1494 29.0618 30.3168 29.1663C30.4495 29.2541 30.5756 29.3514 30.6943 29.4574C30.7809 29.5305 30.8589 29.6132 30.9269 29.7039L31.0021 29.8028L30.665 30.0926C30.6481 30.062 30.6291 30.0326 30.6079 30.0048C30.5506 29.9375 30.4892 29.8738 30.4241 29.814C30.3289 29.7236 30.2253 29.6425 30.1148 29.5716C29.9758 29.4879 29.8264 29.4228 29.6705 29.378C29.336 29.2722 28.9787 29.2618 28.6386 29.3479C28.2986 29.434 27.9893 29.6133 27.7455 29.8655C27.3915 30.2374 27.1941 30.7311 27.1941 31.2445C27.1941 31.7579 27.3915 32.2516 27.7455 32.6235C27.9205 32.8043 28.131 32.9471 28.3637 33.043C28.5964 33.1388 28.8464 33.1857 29.098 33.1807C29.2784 33.1809 29.4581 33.1584 29.6329 33.1138C29.7779 33.0766 29.9181 33.0229 30.0508 32.9536C30.1594 32.8896 30.2555 32.8283 30.3405 32.7712C30.4057 32.7256 30.4647 32.6718 30.516 32.611L30.5703 32.5469V31.6317H29.5006V31.1595H31.0634V32.6723C31.0393 32.7083 31.0122 32.7423 30.9826 32.7739C30.9408 32.8185 30.8642 32.8923 30.7389 33.0038C30.6148 33.113 30.4804 33.21 30.3377 33.2935C29.9597 33.5155 29.5307 33.6359 29.0924 33.6431C28.6167 33.6423 28.152 33.5005 27.7567 33.2358C27.3615 32.9711 27.0535 32.5953 26.8716 32.1558C26.6896 31.7163 26.6419 31.2327 26.7345 30.7661C26.8271 30.2995 27.0557 29.8708 27.3917 29.534L27.3945 29.527Z" fill="#423836"/>
<path d="M36.2417 33.1012V33.5679H32.9697V28.8918H36.1595V29.3612H33.4573V30.8935H35.626V31.3615H33.4573V33.1026L36.2417 33.1012Z" fill="#423836"/>
<path d="M37.9077 33.5679V28.8918H38.4106V33.1012H40.8134V33.5679H37.9077Z" fill="#423836"/>
<path d="M42.8457 32.2683L42.3108 33.5679H41.7773L43.7135 28.8904H44.1774L46.1191 33.5679H45.5856L45.0479 32.2669L42.8457 32.2683ZM43.9489 29.5939L43.0421 31.7975H44.8529L43.9489 29.5939Z" fill="#423836"/>
<path d="M50.1266 28.8918V29.3612H48.6542V33.5679H48.1556V29.3612H46.686V28.8918H50.1266Z" fill="#423836"/>
<path d="M55.1607 32.9369C54.768 33.3346 54.2494 33.5836 53.6934 33.6416C53.1375 33.6995 52.5787 33.5627 52.1124 33.2546C51.6461 32.9464 51.3012 32.486 51.1365 31.9519C50.9718 31.4178 50.9975 30.8431 51.2093 30.3258C51.4212 29.8086 51.8059 29.3809 52.2979 29.1157C52.7899 28.8505 53.3587 28.7642 53.9072 28.8717C54.4557 28.9791 54.95 29.2735 55.3056 29.7047C55.6612 30.136 55.8561 30.6772 55.8572 31.2361C55.863 31.5521 55.8043 31.8659 55.6845 32.1584C55.5647 32.4509 55.3865 32.7158 55.1607 32.9369V32.9369ZM52.106 32.6151C52.4666 32.9726 52.9537 33.1731 53.4613 33.1731C53.969 33.1731 54.4561 32.9726 54.8167 32.6151C55.1701 32.2427 55.3671 31.7489 55.3671 31.2354C55.3671 30.722 55.1701 30.2282 54.8167 29.8557C54.4577 29.4969 53.971 29.2953 53.4634 29.2953C52.9559 29.2953 52.4691 29.4969 52.1102 29.8557V29.8557C51.7574 30.2276 51.5607 30.7207 51.5607 31.2333C51.5607 31.746 51.7574 32.2391 52.1102 32.611L52.106 32.6151Z" fill="#423836"/>
<path d="M61.583 30.2277C61.527 30.3579 61.4539 30.4802 61.3657 30.5912C61.2849 30.6915 61.2 30.789 61.1094 30.8809C61.0435 30.9485 60.9737 31.0122 60.9005 31.0718L60.8044 31.1386L61.8728 32.4424C61.8964 32.409 61.9215 32.363 61.9605 32.3031C62.018 32.1778 62.0646 32.0478 62.0998 31.9145C62.1568 31.717 62.1863 31.5127 62.1876 31.3072H62.6194C62.6205 31.6203 62.5697 31.9314 62.4689 32.2279C62.4244 32.3449 62.3812 32.4494 62.338 32.5413C62.2948 32.6332 62.2572 32.6987 62.2308 32.7419L62.1876 32.8087C62.2519 32.9248 62.3431 33.0237 62.4536 33.0971C62.528 33.1626 62.6221 33.2013 62.7211 33.2071L62.9189 33.1751V33.6069C62.8424 33.6293 62.7631 33.6401 62.6835 33.6389C62.5936 33.6399 62.5044 33.6223 62.4216 33.5874C62.3438 33.5566 62.2722 33.5122 62.2099 33.4565C62.153 33.4061 62.0995 33.3521 62.0497 33.2949C62.012 33.2513 61.978 33.2047 61.948 33.1556L61.9159 33.1027L61.8616 33.157C61.8137 33.2036 61.763 33.2473 61.7098 33.2879C61.633 33.3522 61.5494 33.4078 61.4605 33.4537C61.2195 33.5674 60.9566 33.6268 60.6902 33.6278C60.3396 33.6415 59.9966 33.5232 59.729 33.2963C59.6106 33.1986 59.5153 33.0758 59.45 32.9368C59.3847 32.7978 59.3511 32.6461 59.3516 32.4926C59.3519 32.3344 59.3846 32.1779 59.4477 32.0329C59.5046 31.896 59.58 31.7676 59.6719 31.6512C59.7529 31.5487 59.8404 31.4514 59.9338 31.3601C60.0039 31.2932 60.0794 31.2322 60.1595 31.1776L60.2556 31.1163L60.1818 31.0411C60.1483 31.0091 60.094 30.9394 60.0062 30.8378C59.9309 30.7448 59.8602 30.6481 59.7945 30.548C59.7281 30.4411 59.6717 30.3282 59.626 30.2109C59.549 30.0278 59.5302 29.8254 59.5723 29.6312C59.6145 29.4371 59.7154 29.2606 59.8614 29.1258C60.0674 28.9347 60.3381 28.8286 60.6191 28.8286C60.9002 28.8286 61.1708 28.9347 61.3769 29.1258C61.4754 29.2148 61.554 29.3236 61.6076 29.445C61.6611 29.5665 61.6883 29.6979 61.6875 29.8307C61.6795 29.9686 61.644 30.1036 61.583 30.2277V30.2277ZM60.5063 31.3894L60.4269 31.4506C60.3949 31.4771 60.335 31.5314 60.2528 31.6136C60.1726 31.6917 60.0977 31.775 60.0285 31.8629C59.9602 31.9535 59.9018 32.0511 59.8544 32.1541C59.8031 32.2567 59.775 32.3695 59.7722 32.4842C59.7692 32.5826 59.7895 32.6803 59.8314 32.7693C59.8732 32.8584 59.9355 32.9363 60.0132 32.9968C60.2061 33.134 60.44 33.2013 60.6762 33.1876C60.8473 33.1875 61.0167 33.1539 61.1749 33.0887C61.2975 33.0425 61.4107 32.9745 61.5092 32.8881L61.6095 32.7879L60.5063 31.3894ZM60.1191 30.275C60.2044 30.4151 60.3018 30.5475 60.4102 30.6706L60.5634 30.8224C60.5893 30.8062 60.6135 30.7876 60.6358 30.7667C60.6929 30.7236 60.7473 30.6771 60.7988 30.6274C60.87 30.5567 60.937 30.4818 60.9994 30.4032C61.062 30.3219 61.1157 30.2341 61.1596 30.1413C61.2057 30.0516 61.2305 29.9524 61.232 29.8516C61.2344 29.7715 61.2194 29.6918 61.1882 29.618C61.1569 29.5442 61.1101 29.478 61.0509 29.4239C60.9907 29.3665 60.9196 29.3216 60.8419 29.2917C60.7643 29.2619 60.6814 29.2476 60.5982 29.2498C60.515 29.247 60.432 29.261 60.3542 29.2909C60.2764 29.3208 60.2055 29.366 60.1455 29.4239C60.0865 29.4782 60.0397 29.5443 60.0082 29.6181C59.9767 29.6918 59.9613 29.7714 59.9631 29.8516C59.9743 30.0084 60.0282 30.1592 60.1191 30.2875V30.275Z" fill="#423836"/>
<path d="M66.7498 29.527C67.0567 29.2224 67.4398 29.0059 67.8591 28.9C68.2783 28.7942 68.7183 28.8029 69.1331 28.9253C69.3233 28.9807 69.5051 29.0618 69.6735 29.1662C69.8055 29.2538 69.9308 29.3511 70.0482 29.4573C70.1355 29.5298 70.2136 29.6126 70.2808 29.7039L70.3561 29.8028L70.019 30.0925C70.0021 30.0619 69.983 30.0326 69.9619 30.0048C69.9046 29.9378 69.8437 29.8741 69.7794 29.8139C69.6837 29.7235 69.5797 29.6424 69.4688 29.5716C69.3316 29.489 69.1847 29.424 69.0314 29.378C68.8441 29.3183 68.6485 29.2887 68.4519 29.2902C68.1997 29.2883 67.9498 29.3384 67.7178 29.4374C67.4858 29.5364 67.2767 29.6821 67.1036 29.8655C66.7499 30.2375 66.5528 30.7312 66.5528 31.2445C66.5528 31.7578 66.7499 32.2514 67.1036 32.6235C67.279 32.8042 67.4897 32.9469 67.7226 33.0427C67.9555 33.1386 68.2057 33.1855 68.4575 33.1806C68.6543 33.1794 68.8499 33.1499 69.0383 33.0929C69.198 33.0478 69.3504 32.9802 69.491 32.8923C69.6017 32.8209 69.7082 32.7432 69.81 32.6597C69.8844 32.6004 69.95 32.531 70.005 32.4535L70.0677 32.3727L70.3992 32.6625C70.3752 32.6979 70.3492 32.7318 70.3212 32.7642C70.2836 32.8073 70.2042 32.8826 70.083 32.9926C69.9617 33.1014 69.8307 33.1988 69.6916 33.2837C69.5232 33.3833 69.3431 33.4614 69.1553 33.5163C68.6426 33.669 68.0935 33.6465 67.595 33.4523C67.0964 33.2581 66.6768 32.9034 66.4023 32.4441C66.1279 31.9848 66.0143 31.4472 66.0795 30.9162C66.1446 30.3851 66.3849 29.8909 66.7623 29.5117L66.7498 29.527Z" fill="#423836"/>
<path d="M75.691 32.9369C75.2982 33.3346 74.7796 33.5836 74.2237 33.6416C73.6678 33.6995 73.109 33.5627 72.6427 33.2546C72.1764 32.9464 71.8314 32.486 71.6667 31.9519C71.5021 31.4178 71.5278 30.8431 71.7396 30.3258C71.9514 29.8086 72.3362 29.3809 72.8282 29.1157C73.3202 28.8505 73.889 28.7642 74.4375 28.8717C74.986 28.9791 75.4802 29.2735 75.8358 29.7047C76.1915 30.136 76.3864 30.6772 76.3875 31.2361C76.3936 31.5522 76.335 31.8661 76.2152 32.1586C76.0954 32.4511 75.917 32.716 75.691 32.9369V32.9369ZM72.6377 32.6151C72.998 32.9725 73.4849 33.173 73.9923 33.173C74.4998 33.173 74.9866 32.9725 75.3469 32.6151C75.701 32.243 75.8984 31.7491 75.8984 31.2354C75.8984 30.7218 75.701 30.2279 75.3469 29.8557C74.988 29.4969 74.5013 29.2953 73.9937 29.2953C73.4862 29.2953 72.9994 29.4969 72.6405 29.8557V29.8557C72.2874 30.2275 72.0905 30.7206 72.0905 31.2333C72.0905 31.7461 72.2874 32.2392 72.6405 32.611L72.6377 32.6151Z" fill="#423836"/>
<path d="M81.339 28.8918V29.3612H78.6674V30.9617H80.8055V31.4311H78.6674V33.5679H78.1646V28.8918H81.339Z" fill="#423836"/>
<path d="M86.1127 28.8918V29.3612H83.4369V30.9617H85.5751V31.4311H83.4369V33.5679H82.9341V28.8918H86.1127Z" fill="#423836"/>
<path d="M90.9867 33.1012V33.5679H87.7119V28.8918H90.9059V29.3612H88.2022V30.8935H90.371V31.3615H88.2022V33.1026L90.9867 33.1012Z" fill="#423836"/>
<path d="M95.9261 33.1012V33.5679H92.6499V28.8918H95.8439V29.3612H93.1416V30.8935H95.3104V31.3615H93.1416V33.1026L95.9261 33.1012Z" fill="#423836"/>
<path d="M74.94 6.94067H67.9419V7.2318H69.892V21.7489H67.9419V22.0386H75.4331V21.7489H73.483V7.2318H75.4331V6.94067H74.94ZM72.6458 21.7489H70.2653V20.8128H72.657L72.6458 21.7489ZM72.6458 20.5872H70.2653V19.243H72.657L72.6458 20.5872ZM72.6458 19.0132H70.2653V17.669H72.657L72.6458 19.0132ZM72.6458 17.4461H70.2653V16.2176H72.657L72.6458 17.4461ZM72.6458 15.9766H70.2653V14.6561H72.657L72.6458 15.9766ZM72.6458 14.4235H70.2653V13.1044H72.657L72.6458 14.4235ZM72.6458 12.8662H70.2653V11.4621H72.657L72.6458 12.8662ZM72.6458 11.2323H70.2653V9.92154H72.657L72.6458 11.2323ZM72.6458 9.70006H70.2653V8.37818H72.657L72.6458 9.70006ZM72.6458 8.16784H70.2653V7.30144H72.657L72.6458 8.16784Z" fill="url(#paint0_radial_907_2785)"/>
<path d="M45.803 7.63155C45.1571 7.3408 44.4726 7.14515 43.7707 7.0507C43.088 6.9498 42.3992 6.89674 41.7091 6.89191H41.2133C40.4936 6.89191 39.7716 6.90259 39.0473 6.92394C38.3243 6.94345 37.5944 6.95598 36.8812 6.95598H34.9312V7.24571H36.8812V21.7628H34.9312V22.0525H42.4154V21.7628H40.4653V14.8636H41.3386C42.3324 14.8804 43.3244 14.7732 44.2916 14.5447C45.0295 14.3707 45.7333 14.0751 46.3741 13.6699C46.8842 13.3533 47.3082 12.9155 47.6082 12.3954C47.8728 11.9176 48.0109 11.3801 48.0094 10.8339C48.041 10.1113 47.8204 9.40028 47.3853 8.8225C46.9621 8.30814 46.4265 7.89783 45.8197 7.62319L45.803 7.63155ZM39.6156 21.7336H37.2197V20.8128H39.6128L39.6156 21.7336ZM39.6156 20.5719H37.2197V19.243H39.6128L39.6156 20.5719ZM39.6156 18.9992H37.2197V17.669H39.6128L39.6156 18.9992ZM39.6156 17.4308H37.2197V16.2176H39.6128L39.6156 17.4308ZM39.6156 15.9613H37.2197V14.6505H39.6128L39.6156 15.9613ZM39.6156 14.4081H37.2197V13.0974H39.6128L39.6156 14.4081ZM39.6156 12.8522H37.2197V11.4593H39.6128L39.6156 12.8522ZM39.6156 11.2169H37.2197V9.9257H39.6128L39.6156 11.2169ZM39.6156 9.68473H37.2197V8.37816H39.6128L39.6156 9.68473ZM39.6156 8.15251H37.2197V7.29725C37.8312 7.29725 38.4441 7.29725 39.0556 7.26521L39.6128 7.25128L39.6156 8.15251ZM43.2246 13.7535C42.8641 14.0544 42.4476 14.2809 41.9991 14.4201C41.5506 14.5592 41.079 14.6082 40.6115 14.5642H40.4499V7.24014L40.8302 7.19696H41.0795C41.5038 7.17411 41.9276 7.24945 42.3181 7.41711C42.7085 7.58477 43.0549 7.84024 43.3305 8.16365C43.8483 9.01097 44.0915 9.99761 44.027 10.9885C44.126 11.9783 43.8374 12.9679 43.2219 13.7493L43.2246 13.7535Z" fill="url(#paint1_radial_907_2785)"/>
<path d="M32.8394 21.7684H31.5091L24.8175 6.34592H23.7491L21.9857 10.6431L17.4225 21.7684H15.6367V22.0595H19.6525V21.7684H17.7609L19.4547 17.669H25.8998L27.6744 21.7684H25.7006V22.0595H33.3367V21.7684H32.8394ZM27.4418 14.3998H24.9136L24.3342 13.0988H26.8693L27.4418 14.3998ZM26.2285 11.6028C26.3274 11.8354 26.4291 12.0667 26.5197 12.2993L26.5461 12.3634L26.7453 12.8425H24.238L23.6349 11.4607H26.17L26.2285 11.6028ZM23.2923 8.3782L23.341 8.26259L23.9845 6.69554H24.0988L24.7952 8.32109L24.7144 8.13861H23.4023L23.3466 8.27791L23.2978 8.39352H24.83L25.3872 9.6778H22.8451L22.8632 9.71262L22.9593 9.92992H25.5028L26.06 11.2128H23.5249L22.8688 9.71262L22.8451 9.67501L22.8075 9.58726L23.2923 8.3782ZM22.7128 15.7607H20.225L22.1654 11.0457L22.6028 9.98007L22.9371 10.7462L25.1086 15.7733L22.7128 15.7607ZM26.6464 18.3738L26.3469 17.6648L26.2369 17.4127L25.631 16.0379L25.5934 15.9502L25.0111 14.6506H27.5365L28.1174 15.9488H25.592L25.6296 16.0351L25.702 16.2009H28.226L28.7456 17.4169H26.2383L26.3483 17.6704H28.8654L29.4462 18.9881H26.9166L26.6464 18.3738ZM27.5546 20.5677L27.0058 19.2389H29.5409L30.1218 20.5566H27.5602L27.6089 20.675L27.5546 20.5677ZM30.6191 21.7266H28.038L27.6549 20.8073H30.2276L30.633 21.7266H30.6191Z" fill="url(#paint2_radial_907_2785)"/>
<path d="M94.363 21.7684H93.0272L86.3384 6.34592H85.2672L83.5037 10.6431L78.9391 21.7684H77.1548V22.0595H81.1706V21.7684H79.2804L80.9784 17.669H87.4248L89.1994 21.7684H87.2215V22.0595H94.8589V21.7684H94.363ZM88.9598 14.3998H86.4303L85.8508 13.0988H88.386L88.9598 14.3998ZM87.7466 11.6028L88.0517 12.2993L88.0781 12.3634L88.2843 12.8397H85.7491L85.1418 11.458H87.6825L87.7466 11.6028ZM84.8117 8.37959L84.8605 8.26398L85.5054 6.69554H85.621L86.3175 8.32109L86.2311 8.13861H84.905L84.8507 8.27791L84.8006 8.39352H86.3425L86.8997 9.6778H84.3562L84.3729 9.7182L84.4663 9.92992H87.0056L87.5627 11.2128H85.0234L84.3701 9.71541L84.3534 9.67362L84.3116 9.58587L84.8117 8.37959ZM84.2309 15.7621H81.7333L83.6737 11.0262L84.1097 9.96753L84.444 10.7434L86.6155 15.7691L84.2309 15.7621ZM88.1645 18.3752L87.865 17.6662L87.755 17.4183L87.1518 16.0393L87.1142 15.9571L86.5306 14.6561H89.0587L89.6159 15.9543H87.1045L87.1421 16.0407L87.2145 16.2065H89.7385L90.2622 17.4141H87.7452L87.8552 17.6662H90.3737L90.9587 18.9853H88.4277L88.1645 18.3752ZM89.0643 20.5538L88.5225 19.2361H91.0562L91.6371 20.5538H89.0796L89.1298 20.6722L89.0643 20.5538ZM92.1288 21.7155H89.5449L89.1646 20.792H91.7485L92.1413 21.7336L92.1288 21.7155Z" fill="url(#paint3_radial_907_2785)"/>
<path d="M12.9994 17.5631H12.6595C12.531 18.1427 12.3312 18.7042 12.0647 19.2347C11.806 19.7594 11.4703 20.2425 11.0688 20.668C10.6752 21.0826 10.2111 21.4241 9.69815 21.6765C9.21905 21.9062 8.69706 22.0329 8.16593 22.0484C7.57073 22.0376 6.98161 21.9264 6.42338 21.7196C5.84451 21.4818 5.35656 21.0656 5.03045 20.5315C4.61702 19.828 4.34318 19.0515 4.22395 18.2443C4.03468 17.0364 3.9494 15.8145 3.96904 14.592C3.96904 13.4721 4.01129 12.4423 4.0958 11.5025C4.15207 10.6676 4.34598 9.84772 4.66968 9.07604C4.9514 8.4231 5.42007 7.86816 6.01664 7.48114C6.66274 7.10929 7.3954 6.91423 8.14086 6.91561C8.7474 6.91476 9.34601 7.05345 9.89038 7.32095C10.3916 7.57972 10.8337 7.93973 11.1886 8.37818C11.5348 8.81167 11.8197 9.29068 12.0355 9.80175C12.2528 10.3185 12.4394 10.8116 12.5927 11.2755H13.3532V6.94068H12.5369C12.5313 7.01445 12.5093 7.08606 12.4727 7.15036C12.4361 7.21466 12.3858 7.27006 12.3252 7.31259C12.2698 7.33794 12.2112 7.35575 12.1511 7.36552C11.9965 7.34347 11.8441 7.30805 11.6956 7.25966C11.4226 7.1733 11.1092 7.08555 10.7874 6.99779C10.4657 6.91004 10.091 6.81671 9.70373 6.72896C9.47737 6.68438 9.2485 6.65368 9.0184 6.63702V6.63702C8.74493 6.60219 8.46946 6.58544 8.19379 6.58688C7.90162 6.58641 7.60964 6.60129 7.31903 6.63145V6.63145C6.58042 6.70444 5.85613 6.88317 5.16835 7.16216C3.23005 7.93766 1.64895 9.40558 0.731875 11.281C0.236635 12.2974 -0.0138087 13.4156 0.000587298 14.5461C-0.00831385 15.6096 0.217107 16.662 0.660835 17.6286C1.08028 18.5555 1.67102 19.3948 2.402 20.1025C3.13681 20.8086 3.99644 21.3721 4.93712 21.7642C5.83069 22.1401 6.78722 22.3438 7.75641 22.3646C7.8957 22.3646 8.04614 22.3799 8.18265 22.3799C8.31915 22.3799 8.55177 22.3799 8.72867 22.3632C9.06464 22.3523 9.39937 22.3169 9.73019 22.2573C10.1397 22.1793 10.5172 22.0957 10.8668 22.0052C11.2164 21.9147 11.5201 21.8297 11.7889 21.7503C11.9282 21.7086 12.0701 21.6765 12.2138 21.6542C12.2785 21.6671 12.3403 21.6916 12.3963 21.7266C12.5147 21.8146 12.6036 21.9365 12.6512 22.0762H13.4869V17.5631H12.9994ZM4.06515 8.13442H4.08465C4.26016 8.02995 4.42174 7.91712 4.59864 7.82658C4.51119 7.92608 4.42979 8.03074 4.35488 8.13999H4.06515V8.13442ZM2.84773 9.03704C2.91181 8.98271 2.97867 8.93535 3.04274 8.88382C3.20571 8.74452 3.37147 8.61359 3.54002 8.48822L3.67931 8.37818H4.17937C4.08509 8.51835 3.99995 8.66444 3.92447 8.81556C3.90357 8.85596 3.87711 8.88799 3.86039 8.92839C3.80189 9.06768 3.75035 9.21951 3.69742 9.35323C3.65981 9.44934 3.63613 9.56217 3.60549 9.66385H2.22927C2.4206 9.44351 2.62479 9.23467 2.84077 9.03843L2.84773 9.03704ZM2.03287 9.92573H3.5428C3.51912 10.0135 3.48987 10.0887 3.46759 10.1765C3.43833 10.306 3.41465 10.4383 3.38819 10.5762C3.35058 10.7768 3.32411 10.983 3.30043 11.1891V11.2058H1.179C1.42315 10.7535 1.70902 10.3249 2.03287 9.92573V9.92573ZM0.617654 12.5723C0.617654 12.5556 0.632977 12.5375 0.638548 12.518C0.721052 12.2279 0.824875 11.9444 0.949171 11.6697C0.947801 11.6637 0.947801 11.6575 0.949171 11.6516V11.6516C0.97703 11.5889 1.0035 11.522 1.03553 11.4566H3.2489V11.4774C3.21129 11.9079 3.18343 12.3703 3.16253 12.8425H0.548008C0.568902 12.7548 0.582831 12.6628 0.609297 12.5751L0.617654 12.5723ZM0.376678 14.0613V14.007C0.399004 13.7024 0.440878 13.3995 0.502041 13.1002H3.1486C3.1486 13.5181 3.12493 13.9555 3.12214 14.4012H0.357177C0.362749 14.2856 0.369713 14.1853 0.376678 14.0613ZM0.887882 17.2748C0.770546 16.982 0.673735 16.6813 0.598153 16.375V16.3569H0.581438C0.578819 16.3079 0.570879 16.2593 0.557759 16.212H3.16532V15.9571H0.499256C0.432471 15.6178 0.389188 15.2744 0.369713 14.9291V14.9291V14.6617H3.13885C3.13885 15.1172 3.13885 15.5476 3.16671 15.9599C3.16487 16.0442 3.17 16.1285 3.18204 16.212C3.18204 16.3513 3.20014 16.5017 3.2085 16.6382C3.20989 16.6559 3.20989 16.6736 3.2085 16.6912C3.228 16.953 3.25447 17.2052 3.28093 17.4489V17.4266H0.958922C0.931612 17.3778 0.907871 17.3271 0.887882 17.2748V17.2748ZM1.06896 17.6704H3.28929C3.31854 17.8961 3.34779 18.1147 3.38262 18.3181C3.41744 18.5215 3.46341 18.7095 3.50798 18.899L3.53305 18.9951H1.88383C1.56923 18.5814 1.29628 18.1377 1.06896 17.6704V17.6704ZM3.39097 20.4674C3.1892 20.3139 2.99533 20.1502 2.81012 19.9771C2.76694 19.9353 2.71123 19.9047 2.67083 19.8629C2.46477 19.6668 2.2708 19.4584 2.08998 19.2388H3.61245C3.61698 19.2823 3.62875 19.3247 3.64727 19.3642C3.73193 19.6632 3.83855 19.9556 3.96625 20.239C4.01918 20.3448 4.07351 20.4493 4.13201 20.5524C4.16405 20.6067 4.1933 20.6708 4.22812 20.7265C4.19052 20.6722 4.15708 20.6109 4.12226 20.5524H3.51077L3.39097 20.4674ZM3.90079 20.8101H4.28802C4.38633 20.9564 4.49428 21.096 4.61118 21.2279C4.36441 21.1039 4.12574 20.9643 3.89661 20.8101H3.90079Z" fill="url(#paint4_radial_907_2785)"/>
<path d="M65.4679 21.1945C65.3286 21.3338 65.1782 21.4843 64.9804 21.65C64.9202 21.7019 64.8538 21.7459 64.7826 21.7809L64.7269 21.8032L64.628 21.8367C64.5388 21.8504 64.4476 21.8438 64.3613 21.8176C64.275 21.7913 64.1957 21.7459 64.1293 21.6848C64.0054 21.5305 63.9208 21.3484 63.8827 21.1541C63.7872 20.7421 63.7261 20.3227 63.7003 19.9005C63.6599 19.3628 63.6014 18.6469 63.5317 17.754C63.5063 17.1226 63.3577 16.5023 63.0943 15.9279C62.8767 15.4937 62.5467 15.1258 62.1388 14.8623C61.7025 14.5896 61.2223 14.3945 60.7194 14.2856C60.1734 14.1575 59.554 14.0298 58.8612 13.9025V13.7953C59.3524 13.7505 59.8386 13.6619 60.3141 13.5306C60.7893 13.4053 61.2433 13.21 61.661 12.9512C62.0605 12.7007 62.3982 12.3631 62.6486 11.9636C62.9124 11.5264 63.0449 11.0226 63.0303 10.5122C63.055 9.88681 62.8803 9.26978 62.5316 8.75011C62.2041 8.28537 61.7724 7.90375 61.271 7.63577C60.7419 7.35442 60.1716 7.15839 59.5814 7.05491C59.0069 6.94479 58.4237 6.88652 57.8388 6.8808H57.3416C56.7454 6.8808 56.158 6.89148 55.5795 6.91284C55 6.93373 54.4178 6.94487 53.8174 6.94487H50.6221V7.23182H52.5722V21.7517H50.6221V22.0414H58.1077V21.7517H56.1576V14.1003H57.0783C57.615 14.0693 58.1487 14.1998 58.6105 14.475C58.9779 14.7288 59.2654 15.082 59.4393 15.4933C59.6305 15.9565 59.7485 16.4466 59.7889 16.9461C59.8363 17.4893 59.8748 18.0516 59.9045 18.6329C59.9119 19.0424 59.9416 19.4511 59.9937 19.8573C60.0405 20.2842 60.1762 20.6965 60.3921 21.0678C60.6254 21.4599 60.9629 21.7796 61.3671 21.9913C61.4311 22.0248 61.4972 22.0541 61.5649 22.079C61.743 22.1603 61.93 22.2206 62.1221 22.2587H62.2001C62.331 22.2852 62.4912 22.3047 62.6375 22.3228C62.899 22.3485 63.1617 22.3611 63.4245 22.3604C63.6318 22.3644 63.8393 22.3565 64.0457 22.3367C64.2405 22.3279 64.4345 22.3065 64.6266 22.2727C64.8505 22.2337 65.0683 22.1654 65.2743 22.0693C65.4444 21.99 65.6021 21.8863 65.7423 21.7614C65.8816 21.643 66.0139 21.5121 66.1602 21.37L65.9485 21.1792L65.4679 21.1945ZM55.3176 21.735H52.9218V20.8129H55.3121L55.3176 21.735ZM55.3176 20.5733H52.9218V19.243H55.3121L55.3176 20.5733ZM55.3176 18.9993H52.9218V17.669H55.3121L55.3176 18.9993ZM55.3176 17.4322H52.9218V16.2176H55.3121L55.3176 17.4322ZM55.3176 15.9627H52.9218V14.6506H55.3121L55.3176 15.9627ZM55.3176 14.4082H52.9218V13.0974H55.3121L55.3176 14.4082ZM55.3176 12.8523H52.9218V11.4594H55.3121L55.3176 12.8523ZM55.3176 11.2184H52.9218V9.92574H55.3121L55.3176 11.2184ZM55.3176 9.68616H52.9218V8.3782H55.3121L55.3176 9.68616ZM55.3176 8.15393H52.9218V7.29868H53.8369C54.33 7.29868 54.8273 7.29868 55.3107 7.275L55.3176 8.15393ZM62.2224 10.54C62.2234 10.7709 62.1963 11.001 62.1416 11.2253H59.6176C59.6195 11.3097 59.6144 11.394 59.6023 11.4775H62.0288C61.9915 11.5925 61.9449 11.7043 61.8895 11.8118C61.6643 12.1625 61.3641 12.4589 61.0105 12.6796C60.9116 12.7422 60.7988 12.7924 60.6915 12.8481H59.2791C59.2442 12.9206 59.2056 12.9912 59.1635 13.0598L59.1315 13.103H60.1065C59.9909 13.1434 59.8795 13.1908 59.7569 13.2214C59.469 13.3014 59.177 13.3656 58.8821 13.4136C58.9777 13.3189 59.0635 13.2148 59.1384 13.103V13.103C59.1384 13.0877 59.1635 13.0765 59.1733 13.0598C59.2136 12.993 59.2387 12.9205 59.2805 12.8481C59.4279 12.5615 59.5258 12.2521 59.5702 11.9329C59.5911 11.7797 59.6051 11.6223 59.6176 11.4663H59.5995C59.5965 11.3814 59.6025 11.2964 59.6176 11.2128H59.6315V10.7615C59.6372 10.4826 59.6274 10.2036 59.6023 9.92574H62.1611C62.1959 10.1226 62.2141 10.322 62.2154 10.5219L62.2224 10.54ZM61.7864 8.96601C61.9371 9.18185 62.0479 9.42291 62.1137 9.6778H59.5786C59.5591 9.47443 59.5382 9.27106 59.5034 9.09695C59.4609 8.85394 59.3937 8.6159 59.3028 8.38655H61.2696C61.4641 8.55871 61.6375 8.7532 61.7864 8.96601V8.96601ZM59.0451 7.39757C59.5998 7.49655 60.1356 7.68173 60.633 7.94639C60.7319 7.99932 60.8086 8.07454 60.9033 8.13583H59.176C59.2039 8.18931 59.229 8.24417 59.2513 8.30019L59.1635 8.13583C59.1207 8.03414 59.0684 7.93668 59.0075 7.8447C58.8629 7.6309 58.6784 7.44694 58.4643 7.30286C58.6481 7.33768 58.8515 7.36554 59.0423 7.40036L59.0451 7.39757ZM58.8584 12.8927C58.6547 13.2022 58.3639 13.4445 58.0227 13.5891C57.5448 13.7811 57.0315 13.8695 56.5169 13.8482H56.1422V7.24017L56.613 7.19699H56.8749C57.2282 7.20859 57.5772 7.27727 57.9085 7.40036C58.2398 7.53013 58.5249 7.75562 58.7275 8.04807C58.9411 8.38318 59.0834 8.75873 59.1454 9.15127C59.2375 9.68152 59.2804 10.2192 59.2735 10.7573V10.7894C59.2736 11.1653 59.2485 11.5408 59.1983 11.9134C59.1533 12.2598 59.034 12.5924 58.8487 12.8885L58.8584 12.8927Z" fill="url(#paint5_radial_907_2785)"/>
<path d="M122.528 7.24014V6.95041H115.028V7.24014H116.985V21.7572H115.028V22.0484H122.528V21.7572H120.578V7.24014H122.528ZM119.727 21.7349H117.334V20.8142H119.727V21.7349ZM119.727 20.5732H117.334V19.243H119.727V20.5732ZM119.727 18.9992H117.334V17.669H119.727V18.9992ZM119.727 17.4322H117.334V16.2176H119.727V17.4322ZM119.727 15.9627H117.334V14.6603H119.727V15.9627ZM119.727 14.4081H117.334V13.0974H119.727V14.4081ZM119.727 12.8522H117.334V11.4593H119.727V12.8522ZM119.727 11.2183H117.334V9.9257H119.727V11.2183ZM119.727 9.68612H117.334V8.37816H119.727V9.68612ZM119.727 8.1539H117.334V7.29864H119.727V8.1539Z" fill="url(#paint6_radial_907_2785)"/>
<path d="M107.445 7.21371H108.928C109.526 7.21371 109.999 7.88371 109.999 8.66514V15.1687L103.324 6.68997H96.69V7.0577H97.3279L98.9604 8.93119L99.239 9.24042V20.3323C99.2761 20.6649 99.1862 20.9992 98.9873 21.2683C98.7885 21.5375 98.4953 21.7215 98.1665 21.7837H96.5771V22.0735H102.443V21.7823H100.957C100.355 21.7823 99.884 21.1123 99.884 20.3309V9.955L110.263 22.5485H110.64V8.66793C110.602 8.33465 110.692 7.9993 110.891 7.72946C111.09 7.45961 111.384 7.27532 111.714 7.21371H113.309V6.92677H107.446L107.445 7.21371ZM98.8992 8.1428L97.9673 7.04238H102.062L102.947 8.14558L98.8992 8.1428ZM99.1109 8.38656H103.141L104.17 9.65691H100.175L99.1109 8.38656ZM100.41 9.93132H104.38L105.406 11.2058H101.48L100.41 9.93132ZM101.706 11.4635H105.606L106.7 12.8356H102.862L101.706 11.4635ZM103.078 13.0933H106.89L107.939 14.3915H104.192L103.078 13.0933ZM104.373 14.6575H108.148L109.187 15.9418H105.482L104.373 14.6575ZM105.691 16.2176H109.399L109.98 16.967V17.4197H106.711L105.691 16.2176ZM109.988 21.3213L109.57 20.831H109.988V21.3213ZM109.988 20.5719H109.346L108.246 19.2653H109.988V20.5719ZM109.988 18.9993H108.038L106.936 17.6662H110.001L109.988 18.9993Z" fill="url(#paint7_radial_907_2785)"/>
</g>
<defs>
<radialGradient id="paint0_radial_907_2785" cx="0" cy="0" r="1" gradientUnits="userSpaceOnUse" gradientTransform="translate(70.9175 14.9409) scale(5.96931 5.96585)">
<stop stop-color="#CCB08D"/>
<stop offset="0.57" stop-color="#A3884A"/>
<stop offset="1" stop-color="#7A5D25"/>
</radialGradient>
<radialGradient id="paint1_radial_907_2785" cx="0" cy="0" r="1" gradientUnits="userSpaceOnUse" gradientTransform="translate(40.8505 13.3758) scale(7.0851 7.08102)">
<stop stop-color="#CCB08D"/>
<stop offset="0.57" stop-color="#A3884A"/>
<stop offset="1" stop-color="#7A5D25"/>
</radialGradient>
<radialGradient id="paint2_radial_907_2785" cx="0" cy="0" r="1" gradientUnits="userSpaceOnUse" gradientTransform="translate(25.0339 13.3354) scale(8.36498)">
<stop stop-color="#CCB08D"/>
<stop offset="0.57" stop-color="#A3884A"/>
<stop offset="1" stop-color="#7A5D25"/>
</radialGradient>
<radialGradient id="paint3_radial_907_2785" cx="0" cy="0" r="1" gradientUnits="userSpaceOnUse" gradientTransform="translate(86.5543 13.3354) scale(8.36498 8.36498)">
<stop stop-color="#CCB08D"/>
<stop offset="0.57" stop-color="#A3884A"/>
<stop offset="1" stop-color="#7A5D25"/>
</radialGradient>
<radialGradient id="paint4_radial_907_2785" cx="0" cy="0" r="1" gradientUnits="userSpaceOnUse" gradientTransform="translate(7.50157 15.3768) scale(7.34157 7.34563)">
<stop stop-color="#CCB08D"/>
<stop offset="0.57" stop-color="#A3884A"/>
<stop offset="1" stop-color="#7A5D25"/>
</radialGradient>
<radialGradient id="paint5_radial_907_2785" cx="0" cy="0" r="1" gradientUnits="userSpaceOnUse" gradientTransform="translate(58.9739 15.3168) scale(7.79698 7.77066)">
<stop stop-color="#CCB08D"/>
<stop offset="0.57" stop-color="#A3884A"/>
<stop offset="1" stop-color="#7A5D25"/>
</radialGradient>
<radialGradient id="paint6_radial_907_2785" cx="0" cy="0" r="1" gradientUnits="userSpaceOnUse" gradientTransform="translate(119.16 14.9423) scale(5.96586 5.96585)">
<stop stop-color="#CCB08D"/>
<stop offset="0.57" stop-color="#A3884A"/>
<stop offset="1" stop-color="#7A5D25"/>
</radialGradient>
<radialGradient id="paint7_radial_907_2785" cx="0" cy="0" r="1" gradientUnits="userSpaceOnUse" gradientTransform="translate(103.745 15.046) scale(8.15697 8.16147)">
<stop stop-color="#CCB08D"/>
<stop offset="0.57" stop-color="#A3884A"/>
<stop offset="1" stop-color="#7A5D25"/>
</radialGradient>
<clipPath id="clip0_907_2785">
<rect width="122" height="40" fill="white"/>
</clipPath>
</defs>
</svg>
